<svg width="24" height="24" viewBox="0 0 24 24" fill="none" xmlns="http://www.w3.org/2000/svg">
<path fill-rule="evenodd" clip-rule="evenodd" d="M7.69494 13.3908C7.05018 13.3908 6.52637 12.867 6.52637 12.2223C6.52637 11.5794 7.05018 11.0556 7.69494 11.0556C8.3397 11.0556 8.86351 11.5794 8.86351 12.2223C8.86351 12.867 8.3397 13.3908 7.69494 13.3908ZM12.2378 13.3908C11.593 13.3908 11.0692 12.867 11.0692 12.2223C11.0692 11.5794 11.593 11.0556 12.2378 11.0556C12.8826 11.0556 13.4064 11.5794 13.4064 12.2223C13.4064 12.867 12.8826 13.3908 12.2378 13.3908ZM15.6122 12.2223C15.6122 12.867 16.136 13.3908 16.7807 13.3908C17.4255 13.3908 17.9493 12.867 17.9493 12.2223C17.9493 11.5794 17.4255 11.0556 16.7807 11.0556C16.136 11.0556 15.6122 11.5794 15.6122 12.2223Z" fill="#292422"/>
<path fill-rule="evenodd" clip-rule="evenodd" d="M12.02 2C6.21 2 2 6.74612 2 12.015C2 13.6975 2.49 15.4291 3.35 17.0115C3.51 17.2729 3.53 17.6024 3.42 17.9139L2.75 20.1572C2.6 20.698 3.06 21.0976 3.57 20.9374L5.59 20.3375C6.14 20.1572 6.57 20.3866 7.08 20.698C8.54 21.5583 10.36 22 12 22C16.96 22 22 18.1642 22 11.985C22 6.65598 17.7 2 12.02 2Z" stroke="#292422" stroke-width="1.5" stroke-linecap="round" stroke-linejoin="round"/>
</svg>
