<svg width="29" height="28" viewBox="0 0 29 28" fill="none" xmlns="http://www.w3.org/2000/svg">
<path fill-rule="evenodd" clip-rule="evenodd" d="M22.3251 10.2623C22.3251 11.7276 22.7124 12.5912 23.5646 13.5864C24.2104 14.3197 24.4168 15.2608 24.4168 16.2819C24.4168 17.3019 24.0817 18.2701 23.4104 19.0562C22.5315 19.9985 21.292 20.6002 20.0269 20.7047C18.1938 20.861 16.3594 20.9926 14.5007 20.9926C12.6409 20.9926 10.8077 20.9139 8.97454 20.7047C7.70836 20.6002 6.46885 19.9985 5.59111 19.0562C4.91975 18.2701 4.5835 17.3019 4.5835 16.2819C4.5835 15.2608 4.79105 14.3197 5.43573 13.5864C6.31464 12.5912 6.6764 11.7276 6.6764 10.2623V9.76527C6.6764 7.80298 7.16571 6.51986 8.17332 5.26376C9.6714 3.4319 12.0727 2.33325 14.4486 2.33325H14.5529C16.9798 2.33325 19.4588 3.48477 20.9314 5.39536C21.8868 6.62561 22.3251 7.85468 22.3251 9.76527V10.2623ZM11.0861 23.4042C11.0861 22.8167 11.6253 22.5476 12.1239 22.4325C12.7071 22.3091 16.261 22.3091 16.8442 22.4325C17.3428 22.5476 17.882 22.8167 17.882 23.4042C17.853 23.9635 17.5249 24.4594 17.0715 24.7743C16.4836 25.2326 15.7937 25.5228 15.0725 25.6274C14.6736 25.6791 14.2817 25.6802 13.8968 25.6274C13.1744 25.5228 12.4845 25.2326 11.8978 24.7731C11.4433 24.4594 11.1151 23.9635 11.0861 23.4042Z" fill="#202020"/>
</svg>
