<svg width="29" height="28" viewBox="0 0 29 28" fill="none" xmlns="http://www.w3.org/2000/svg">
<path fill-rule="evenodd" clip-rule="evenodd" d="M2.83325 12.4483C2.83325 6.86194 7.31365 2.33334 12.8405 2.33334C15.4946 2.33334 18.04 3.39902 19.9167 5.29593C21.7934 7.19285 22.8477 9.76561 22.8477 12.4483C22.8477 18.0346 18.3673 22.5632 12.8405 22.5632C7.31365 22.5632 2.83325 18.0346 2.83325 12.4483ZM22.6822 20.5967L25.6626 23.0025H25.7143C26.3173 23.612 26.3173 24.6001 25.7143 25.2096C25.1114 25.819 24.1337 25.819 23.5308 25.2096L21.0574 22.3749C20.8236 22.1394 20.6922 21.8194 20.6922 21.4858C20.6922 21.1521 20.8236 20.8322 21.0574 20.5967C21.5084 20.1488 22.2312 20.1488 22.6822 20.5967Z" fill="#202020"/>
</svg>
