<svg width="222" height="76" viewBox="0 0 222 76" fill="none" xmlns="http://www.w3.org/2000/svg">
<path d="M4.76009 68.634C4.76009 69.388 4.38309 70.038 3.44709 70.038C2.51109 70.038 2.12109 69.375 2.10809 68.543H0.92509C0.92509 70.129 1.93909 71.091 3.44709 71.091C4.94209 71.091 5.95609 70.142 5.95609 68.634V61.939H4.76009V68.634ZM15.0466 67.425C15.0466 65.176 13.4736 63.759 11.4456 63.759C9.43064 63.759 7.84464 65.176 7.84464 67.425C7.84464 69.687 9.37864 71.117 11.3936 71.117C13.4216 71.117 15.0466 69.687 15.0466 67.425ZM9.05364 67.425C9.05364 65.631 10.1846 64.786 11.4326 64.786C12.6546 64.786 13.8376 65.631 13.8376 67.425C13.8376 69.232 12.6286 70.077 11.3936 70.077C10.1586 70.077 9.05364 69.232 9.05364 67.425ZM17.7851 65.202V61.38H16.6021V71H17.7851V69.687C18.2271 70.467 19.1501 71.117 20.4501 71.117C22.3611 71.117 23.8301 69.622 23.8301 67.412C23.8301 65.189 22.3741 63.759 20.4501 63.759C19.1891 63.759 18.2401 64.409 17.7851 65.202ZM22.6211 67.412C22.6211 69.089 21.5161 70.077 20.2031 70.077C18.9161 70.077 17.7851 69.102 17.7851 67.425C17.7851 65.774 18.9161 64.786 20.2031 64.786C21.5161 64.786 22.6211 65.735 22.6211 67.412ZM28.4111 67.412C28.4111 69.622 29.8801 71.117 31.7781 71.117C33.0911 71.117 34.0141 70.441 34.4431 69.674V71H35.6391V63.876H34.4431V65.176C34.0271 64.435 33.1171 63.759 31.7911 63.759C29.8801 63.759 28.4111 65.189 28.4111 67.412ZM34.4431 67.425C34.4431 69.102 33.3251 70.077 32.0251 70.077C30.7251 70.077 29.6201 69.089 29.6201 67.412C29.6201 65.735 30.7251 64.786 32.0251 64.786C33.3251 64.786 34.4431 65.774 34.4431 67.425ZM42.8512 71H44.0212V66.801C44.0212 64.76 42.7602 63.746 41.1092 63.746C40.1472 63.746 39.2892 64.149 38.8212 64.89V63.876H37.6382V71H38.8212V67.061C38.8212 65.527 39.6532 64.773 40.8622 64.773C42.0582 64.773 42.8512 65.514 42.8512 66.97V71ZM45.5116 67.412C45.5116 69.622 46.9806 71.117 48.8916 71.117C50.1916 71.117 51.1146 70.454 51.5436 69.661V71H52.7396V61.38H51.5436V65.15C51.0496 64.331 50.0226 63.759 48.9046 63.759C46.9806 63.759 45.5116 65.189 45.5116 67.412ZM51.5436 67.425C51.5436 69.102 50.4256 70.077 49.1256 70.077C47.8256 70.077 46.7206 69.089 46.7206 67.412C46.7206 65.735 47.8256 64.786 49.1256 64.786C50.4256 64.786 51.5436 65.774 51.5436 67.425ZM58.2046 71H59.3876V66.918H62.5856V65.956H59.3876V62.901H63.3266V61.939H58.2046V71ZM65.9384 67.126C65.9384 65.475 66.7964 64.968 67.9274 64.968H68.2394V63.746C67.1084 63.746 66.3414 64.24 65.9384 65.033V63.876H64.7554V71H65.9384V67.126ZM72.634 64.76C73.856 64.76 74.896 65.527 74.883 66.918H70.385C70.515 65.527 71.477 64.76 72.634 64.76ZM75.962 68.803H74.688C74.428 69.57 73.752 70.116 72.686 70.116C71.477 70.116 70.463 69.323 70.372 67.88H76.066C76.092 67.633 76.105 67.425 76.105 67.165C76.105 65.215 74.753 63.759 72.686 63.759C70.606 63.759 69.163 65.176 69.163 67.425C69.163 69.687 70.658 71.117 72.686 71.117C74.454 71.117 75.598 70.103 75.962 68.803ZM80.6955 64.76C81.9175 64.76 82.9575 65.527 82.9445 66.918H78.4465C78.5765 65.527 79.5385 64.76 80.6955 64.76ZM84.0235 68.803H82.7495C82.4895 69.57 81.8135 70.116 80.7475 70.116C79.5385 70.116 78.5245 69.323 78.4335 67.88H84.1275C84.1535 67.633 84.1665 67.425 84.1665 67.165C84.1665 65.215 82.8145 63.759 80.7475 63.759C78.6675 63.759 77.2245 65.176 77.2245 67.425C77.2245 69.687 78.7195 71.117 80.7475 71.117C82.5155 71.117 83.6595 70.103 84.0235 68.803ZM85.7281 71H86.9111V61.38H85.7281V71ZM88.4853 67.412C88.4853 69.622 89.9543 71.117 91.8523 71.117C93.1653 71.117 94.0883 70.441 94.5173 69.674V71H95.7133V63.876H94.5173V65.176C94.1013 64.435 93.1913 63.759 91.8653 63.759C89.9543 63.759 88.4853 65.189 88.4853 67.412ZM94.5173 67.425C94.5173 69.102 93.3993 70.077 92.0993 70.077C90.7993 70.077 89.6943 69.089 89.6943 67.412C89.6943 65.735 90.7993 64.786 92.0993 64.786C93.3993 64.786 94.5173 65.774 94.5173 67.425ZM102.925 71H104.095V66.801C104.095 64.76 102.834 63.746 101.183 63.746C100.221 63.746 99.3634 64.149 98.8954 64.89V63.876H97.7124V71H98.8954V67.061C98.8954 65.527 99.7274 64.773 100.936 64.773C102.132 64.773 102.925 65.514 102.925 66.97V71ZM105.586 67.425C105.586 69.687 107.029 71.117 109.057 71.117C110.825 71.117 111.982 70.129 112.346 68.712H111.072C110.812 69.609 110.11 70.116 109.057 70.116C107.757 70.116 106.795 69.193 106.795 67.425C106.795 65.683 107.757 64.76 109.057 64.76C110.11 64.76 110.825 65.306 111.072 66.164H112.346C111.982 64.669 110.825 63.759 109.057 63.759C107.029 63.759 105.586 65.189 105.586 67.425ZM113.924 71H115.107V63.876H113.924V71ZM114.535 62.719C114.964 62.719 115.315 62.368 115.315 61.913C115.315 61.458 114.964 61.107 114.535 61.107C114.08 61.107 113.729 61.458 113.729 61.913C113.729 62.368 114.08 62.719 114.535 62.719ZM122.337 71H123.507V66.801C123.507 64.76 122.246 63.746 120.595 63.746C119.633 63.746 118.775 64.149 118.307 64.89V63.876H117.124V71H118.307V67.061C118.307 65.527 119.139 64.773 120.348 64.773C121.544 64.773 122.337 65.514 122.337 66.97V71ZM124.997 67.412C124.997 69.622 126.466 71.117 128.377 71.117C129.677 71.117 130.6 70.428 131.029 69.661V71.156C131.029 72.677 130.08 73.483 128.819 73.483C127.649 73.483 126.804 72.898 126.544 72.04H125.374C125.608 73.561 126.947 74.51 128.819 74.51C130.912 74.51 132.225 73.119 132.225 71.156V63.876H131.029V65.176C130.613 64.409 129.677 63.759 128.377 63.759C126.466 63.759 124.997 65.189 124.997 67.412ZM131.029 67.425C131.029 69.102 129.911 70.077 128.611 70.077C127.311 70.077 126.206 69.089 126.206 67.412C126.206 65.735 127.311 64.786 128.611 64.786C129.911 64.786 131.029 65.774 131.029 67.425ZM137.69 71H138.873V64.279L141.876 71H142.708L145.698 64.292V71H146.881V62.004H145.62L142.292 69.44L138.964 62.004H137.69V71ZM148.445 67.412C148.445 69.622 149.914 71.117 151.812 71.117C153.125 71.117 154.048 70.441 154.477 69.674V71H155.673V63.876H154.477V65.176C154.061 64.435 153.151 63.759 151.825 63.759C149.914 63.759 148.445 65.189 148.445 67.412ZM154.477 67.425C154.477 69.102 153.359 70.077 152.059 70.077C150.759 70.077 149.654 69.089 149.654 67.412C149.654 65.735 150.759 64.786 152.059 64.786C153.359 64.786 154.477 65.774 154.477 67.425ZM158.855 67.126C158.855 65.475 159.713 64.968 160.844 64.968H161.156V63.746C160.025 63.746 159.258 64.24 158.855 65.033V63.876H157.672V71H158.855V67.126ZM162.522 71H163.705V67.854L166.5 71H168.112L164.745 67.425L168.099 63.876H166.448L163.705 67.035V61.38H162.522V71ZM172.241 64.76C173.463 64.76 174.503 65.527 174.49 66.918H169.992C170.122 65.527 171.084 64.76 172.241 64.76ZM175.569 68.803H174.295C174.035 69.57 173.359 70.116 172.293 70.116C171.084 70.116 170.07 69.323 169.979 67.88H175.673C175.699 67.633 175.712 67.425 175.712 67.165C175.712 65.215 174.36 63.759 172.293 63.759C170.213 63.759 168.77 65.176 168.77 67.425C168.77 69.687 170.265 71.117 172.293 71.117C174.061 71.117 175.205 70.103 175.569 68.803ZM177.534 69.05C177.534 70.48 178.249 71 179.51 71H180.576V69.999H179.705C178.977 69.999 178.717 69.752 178.717 69.05V64.851H180.576V63.876H178.717V62.082H177.534V63.876H176.611V64.851H177.534V69.05ZM183.192 65.189V63.876H182.009V74.38H183.192V69.687C183.634 70.415 184.557 71.117 185.857 71.117C187.768 71.117 189.237 69.622 189.237 67.412C189.237 65.189 187.768 63.759 185.857 63.759C184.557 63.759 183.621 64.435 183.192 65.189ZM188.028 67.412C188.028 69.089 186.923 70.077 185.61 70.077C184.323 70.077 183.192 69.102 183.192 67.425C183.192 65.774 184.323 64.786 185.61 64.786C186.923 64.786 188.028 65.735 188.028 67.412ZM190.794 71H191.977V61.38H190.794V71ZM193.552 67.412C193.552 69.622 195.021 71.117 196.919 71.117C198.232 71.117 199.155 70.441 199.584 69.674V71H200.78V63.876H199.584V65.176C199.168 64.435 198.258 63.759 196.932 63.759C195.021 63.759 193.552 65.189 193.552 67.412ZM199.584 67.425C199.584 69.102 198.466 70.077 197.166 70.077C195.866 70.077 194.761 69.089 194.761 67.412C194.761 65.735 195.866 64.786 197.166 64.786C198.466 64.786 199.584 65.774 199.584 67.425ZM202.337 67.425C202.337 69.687 203.78 71.117 205.808 71.117C207.576 71.117 208.733 70.129 209.097 68.712H207.823C207.563 69.609 206.861 70.116 205.808 70.116C204.508 70.116 203.546 69.193 203.546 67.425C203.546 65.683 204.508 64.76 205.808 64.76C206.861 64.76 207.576 65.306 207.823 66.164H209.097C208.733 64.669 207.576 63.759 205.808 63.759C203.78 63.759 202.337 65.189 202.337 67.425ZM213.704 64.76C214.926 64.76 215.966 65.527 215.953 66.918H211.455C211.585 65.527 212.547 64.76 213.704 64.76ZM217.032 68.803H215.758C215.498 69.57 214.822 70.116 213.756 70.116C212.547 70.116 211.533 69.323 211.442 67.88H217.136C217.162 67.633 217.175 67.425 217.175 67.165C217.175 65.215 215.823 63.759 213.756 63.759C211.676 63.759 210.233 65.176 210.233 67.425C210.233 69.687 211.728 71.117 213.756 71.117C215.524 71.117 216.668 70.103 217.032 68.803ZM219.14 68.439H220.128L220.271 61.939H218.997L219.14 68.439ZM220.466 70.272C220.466 69.817 220.115 69.466 219.686 69.466C219.231 69.466 218.88 69.817 218.88 70.272C218.88 70.727 219.231 71.078 219.686 71.078C220.115 71.078 220.466 70.727 220.466 70.272Z" fill="#6B6B6B"/>
<path d="M94.112 32H98.36L91.256 23.552L98.168 15.248H94.112L88.016 22.76V15.248H84.656V32H88.016V24.536L94.112 32ZM100.57 32H103.93V18.704H100.57V32ZM102.274 17.12C103.45 17.12 104.338 16.256 104.338 15.152C104.338 14.048 103.45 13.184 102.274 13.184C101.074 13.184 100.21 14.048 100.21 15.152C100.21 16.256 101.074 17.12 102.274 17.12ZM125.85 32H129.21V24.2C129.21 20.528 126.954 18.512 123.762 18.512C121.818 18.512 120.066 19.544 119.202 21.056C118.29 19.4 116.586 18.512 114.522 18.512C112.866 18.512 111.45 19.208 110.61 20.312V18.704H107.25V32H110.61V24.656C110.61 22.544 111.786 21.44 113.61 21.44C115.386 21.44 116.562 22.544 116.562 24.656V32H119.922V24.656C119.922 22.544 121.098 21.44 122.898 21.44C124.674 21.44 125.85 22.544 125.85 24.656V32ZM135.758 20.648V14.24H132.398V32H135.758V30.104C136.574 31.256 138.062 32.216 140.15 32.216C143.558 32.216 146.222 29.456 146.222 25.304C146.222 21.152 143.558 18.488 140.15 18.488C138.134 18.488 136.574 19.424 135.758 20.648ZM142.79 25.304C142.79 27.824 141.086 29.264 139.262 29.264C137.462 29.264 135.758 27.872 135.758 25.352C135.758 22.832 137.462 21.44 139.262 21.44C141.086 21.44 142.79 22.784 142.79 25.304ZM154.376 21.248C156.104 21.248 157.496 22.352 157.544 24.104H151.232C151.496 22.28 152.768 21.248 154.376 21.248ZM160.688 27.824H157.064C156.632 28.712 155.84 29.432 154.4 29.432C152.72 29.432 151.376 28.328 151.208 26.36H160.928C161 25.928 161.024 25.496 161.024 25.064C161.024 21.104 158.312 18.488 154.472 18.488C150.536 18.488 147.8 21.152 147.8 25.352C147.8 29.528 150.608 32.216 154.472 32.216C157.76 32.216 159.968 30.272 160.688 27.824ZM166.836 25.376C166.836 22.808 168.036 22.04 170.028 22.04H170.916V18.512C169.068 18.512 167.676 19.4 166.836 20.768V18.704H163.476V32H166.836V25.376Z" fill="#202020"/>
<path fill-rule="evenodd" clip-rule="evenodd" d="M60.6756 29.7792H62.9998C67.4181 29.7792 70.9998 26.1974 70.9998 21.7792V13C70.9998 8.58172 67.4181 5 62.9999 5H54.2207C49.8024 5 46.2207 8.58171 46.2207 13L46.2207 16.1506H43.8965C39.4782 16.1506 35.8965 19.7323 35.8965 24.1506V32.9297C35.8965 37.348 39.4782 40.9297 43.8965 40.9297H52.6756C57.0939 40.9297 60.6756 37.348 60.6756 32.9298V29.7792ZM46.221 16.1506V21.7791C46.221 26.1974 49.8027 29.7791 54.221 29.7791H60.6753V24.1506C60.6753 19.7323 57.0936 16.1506 52.6753 16.1506H46.221Z" fill="#348AF9"/>
</svg>
