<svg width="390" height="390" viewBox="0 0 390 390" fill="none" xmlns="http://www.w3.org/2000/svg">
<path d="M71.7634 190.284C69.27 190.6 67.7603 188.739 65.9236 187.673C65.6546 187.517 65.4442 186.804 65.5463 186.459C66.15 184.424 66.7481 182.372 67.564 180.426C68.0531 179.26 69.0658 179.099 70.1266 179.887C70.8206 180.402 71.5651 180.842 72.2791 181.328C74.5789 182.895 74.8513 183.838 73.6888 186.422C73.1197 187.687 72.4831 188.918 71.7634 190.284ZM68.6952 182.999C68.3108 184.187 67.9263 185.376 67.5418 186.564C68.6639 186.83 70.1529 187.676 70.8145 187.214C71.6302 186.644 72.2997 184.823 72.0339 183.841C71.7484 182.786 70.4597 181.54 68.6952 182.999Z" fill="#FFB61D"/>
<path d="M321.363 96.6844C318.87 97.0001 317.36 95.139 315.524 94.0727C315.255 93.9165 315.044 93.2035 315.146 92.8594C315.75 90.824 316.348 88.7724 317.164 86.8263C317.653 85.6597 318.666 85.4989 319.727 86.2866C320.421 86.802 321.165 87.2418 321.879 87.7283C324.179 89.2952 324.451 90.2376 323.289 92.8221C322.72 94.087 322.083 95.3184 321.363 96.6844ZM318.295 89.399C317.911 90.5873 317.526 91.7757 317.142 92.964C318.264 93.2298 319.753 94.076 320.415 93.6138C321.23 93.044 321.9 91.2226 321.634 90.2407C321.349 89.1864 320.06 87.9395 318.295 89.399Z" fill="#FFB61D"/>
<path d="M142.79 337.471C107.506 335.855 64.8496 259.221 104.012 232.595C143.175 205.97 131.602 129.046 131.602 129.046C136.439 97.6278 139.769 66.779 173.909 51.0911C192.602 42.5014 219.676 55.8859 236.23 48.7169C274.349 32.2079 284.79 26.2442 300.194 50.7649C344.892 121.918 274.51 178.116 290.091 236.268C298.486 267.598 308.889 298.763 297.747 322.08C286.606 345.397 281.829 333.176 250.82 341.485C235.343 345.632 218.288 354.707 200 355.798C181.712 356.889 186.855 348.535 170.614 341.377C160.447 336.895 151.063 346.241 142.79 337.471Z" fill="#348AF9"/>
<path fill-rule="evenodd" clip-rule="evenodd" d="M174.46 296.4C171.21 294.71 168.558 291.17 168.145 287.449C167.748 283.875 170.183 279.934 171.99 277.03C172.429 276.325 172.906 275.661 173.381 274.999C174.12 273.97 174.855 272.946 175.436 271.785C175.55 271.557 175.666 271.321 175.785 271.079C176.511 269.607 177.341 267.921 178.305 266.716C179.495 265.229 180.519 263.685 181.562 262.111L181.565 262.107L181.57 262.098C181.747 261.831 181.925 261.563 182.104 261.295C182.584 260.575 183.118 259.881 183.654 259.187C184.471 258.127 185.289 257.065 185.914 255.909C186.808 254.255 188.192 252.572 189.407 251.146C190.237 250.172 190.929 249.112 191.622 248.052C192.225 247.129 192.828 246.205 193.523 245.337C194.277 244.394 194.88 243.348 195.482 242.302C195.927 241.531 196.371 240.761 196.874 240.033C197.856 238.615 198.916 236.583 199.297 234.906C199.463 234.176 199.706 233.499 199.948 232.828C200.304 231.839 200.655 230.863 200.743 229.755C200.908 227.693 200.745 226.278 200.003 224.369C199.892 224.086 199.801 223.787 199.709 223.487C199.557 222.991 199.403 222.489 199.16 222.04C199.031 221.486 198.657 221.811 198.114 222.283C196.982 223.268 195.113 224.893 193.181 220.544C192.744 219.671 192.5 218.634 192.269 217.652C192.213 217.413 192.157 217.177 192.099 216.947C191.496 214.532 191.493 211.67 192.066 209.251C192.262 208.426 192.401 207.569 192.539 206.716C192.611 206.276 192.682 205.838 192.76 205.406C192.966 204.277 193.295 201.869 193.18 200.72C192.675 197.814 190.88 193.68 188.989 189.324C186.988 184.715 184.879 179.857 184.073 175.94C183.38 173.304 182.305 171.129 181.083 168.686C177.961 167.422 174.797 166.356 171.606 165.293C167.537 163.937 164.658 161.772 162.129 158.26C160.138 155.494 158.718 151.908 157.969 148.614C157.713 147.488 157.616 146.358 157.519 145.227C157.452 144.45 157.385 143.672 157.267 142.893C157.077 141.643 157.467 140.113 157.825 138.706C157.969 138.141 158.109 137.595 158.203 137.095C158.84 133.719 160.727 130.667 162.543 127.732C162.955 127.065 163.364 126.404 163.754 125.746C165.338 123.073 167.626 120.647 169.839 118.302C170.562 117.536 171.277 116.777 171.957 116.022C172.34 115.596 172.661 115.123 172.983 114.649C173.286 114.202 173.589 113.754 173.946 113.344C174.538 112.665 175.158 112.073 175.786 111.474C176.104 111.172 176.423 110.867 176.741 110.549C177.509 109.781 178.198 108.942 178.886 108.104C179.621 107.208 180.357 106.313 181.187 105.505C183.022 103.72 191.62 91.52 193.094 87.2859C193.776 85.7706 194.512 84.2708 195.247 82.7714C196.134 80.9649 197.02 79.1588 197.811 77.3267C198.119 76.6144 198.557 75.9659 198.994 75.3173C199.502 74.5657 200.009 73.8138 200.315 72.9621C200.707 71.8667 201.295 70.8678 201.883 69.8688C202.237 69.2667 202.592 68.6646 202.903 68.0413C204.795 64.2583 207.306 60.7493 209.953 57.4402C212.523 54.227 216.796 51.9291 220.725 50.9469C221.882 50.6577 222.344 50.6671 223.322 50.687C223.617 50.693 223.958 50.6999 224.38 50.6999C226.701 50.1982 227.918 50.5823 228.996 50.9224C229.368 51.0395 229.722 51.1514 230.1 51.2201C231.573 51.4879 233.286 52.4086 234.52 53.3C237.051 55.128 241.682 61.1859 241.02 68.38C240.547 73.5158 236.419 86.2346 235.3 88.92C234.996 89.6485 234.834 90.819 234.688 91.87C234.611 92.4194 234.54 92.9361 234.455 93.34C234.279 94.173 234.094 95.352 234 96.2C233.789 98.0981 234.01 99.2779 234.455 101.155C234.538 101.509 234.626 101.862 234.713 102.215L234.713 102.218C234.85 102.771 234.987 103.325 235.11 103.88C235.249 104.506 235.614 105.189 235.95 105.819L235.95 105.82C236.057 106.02 236.161 106.215 236.254 106.401C236.287 106.468 236.321 106.536 236.355 106.605C236.38 106.654 236.404 106.703 236.428 106.753L236.488 106.874C237.236 108.395 238.178 110.31 239.598 111.122C240.204 111.273 240.663 111.435 241.128 111.599C241.564 111.753 242.006 111.909 242.58 112.06L242.847 112.13C243.883 112.401 244.892 112.665 245.841 113.148C248.757 114.634 250.896 117.017 252.66 119.73C252.975 120.216 253.242 120.805 253.458 121.344C253.745 122.062 254.037 122.465 254.576 123.024C254.647 123.097 254.72 123.172 254.795 123.247C255.243 123.698 255.73 124.188 255.882 124.81C256 125.29 256.202 125.643 256.426 126.035L256.426 126.036L256.427 126.038C256.481 126.132 256.536 126.228 256.592 126.33C256.732 126.583 256.799 126.834 256.865 127.082C256.953 127.409 257.04 127.731 257.29 128.05C257.666 128.531 257.773 129.022 257.897 129.588C257.907 129.634 257.918 129.682 257.929 129.73C258.049 130.271 258.23 130.806 258.412 131.343C258.577 131.831 258.742 132.321 258.863 132.817C259.008 133.413 259.282 133.956 259.555 134.497C259.839 135.059 260.122 135.62 260.26 136.24C260.315 136.489 260.942 137.942 261.382 137.382C261.62 137.08 261.722 136.583 261.817 136.123C261.865 135.888 261.912 135.662 261.973 135.478C262.043 135.268 262.146 135.068 262.249 134.868C262.41 134.555 262.57 134.243 262.6 133.9C262.775 133.169 263.036 132.618 263.289 132.083C263.411 131.824 263.531 131.57 263.64 131.3C263.916 130.614 264.107 130.183 264.401 129.523L264.42 129.48C264.747 128.743 265.134 127.988 265.513 127.249C265.672 126.939 265.829 126.632 265.98 126.33C266.112 126.065 266.249 125.788 266.388 125.506L266.389 125.505C266.764 124.744 267.16 123.941 267.54 123.24C267.842 122.683 268.161 122.169 268.483 121.651C268.689 121.32 268.896 120.987 269.1 120.64C269.312 120.28 269.42 119.797 269.521 119.352C269.552 119.214 269.582 119.081 269.614 118.955C269.783 118.704 269.857 118.489 269.926 118.287C269.966 118.172 270.004 118.061 270.058 117.949C270.43 117.175 270.76 116.406 271.087 115.613C271.709 114.101 272.458 112.691 273.224 111.249C273.31 111.086 273.397 110.923 273.483 110.76C273.568 110.599 273.656 110.446 273.744 110.295C273.996 109.857 274.238 109.437 274.358 108.909C274.403 108.711 274.43 108.513 274.457 108.318C274.519 107.866 274.579 107.43 274.853 107.057C273.966 107.199 272.658 107.141 271.76 107.051C271.041 106.98 266.935 106.505 266.24 106.34C266.114 106.31 266.002 106.299 265.904 106.289C265.775 106.275 265.668 106.265 265.581 106.218C265.163 105.993 265.19 104.944 265.343 98.8869C265.402 96.5682 265.479 93.5154 265.557 89.4942C266.039 88.9113 266.759 88.7571 267.457 88.6076C267.633 88.57 267.807 88.5327 267.976 88.4889C268.931 88.2412 269.226 88.2947 269.668 88.3747C269.952 88.4263 270.298 88.4889 270.92 88.4889C271.367 88.4889 271.833 88.5323 272.297 88.5756C272.711 88.6142 273.124 88.6526 273.52 88.66C274.321 88.6748 276.565 89.8714 276.9 90.48L287.974 91.5199C289.441 91.8133 293.02 95.16 291.439 100.553C291.16 101.243 290.728 101.824 290.266 102.401C289.98 102.759 289.637 103.053 289.294 103.348C289.045 103.561 288.795 103.775 288.567 104.014C288.2 104.398 287.898 104.829 287.596 105.261C287.428 105.5 287.26 105.74 287.081 105.971C286 107.9 281.529 113.614 280.8 114.4C280.521 114.974 279.489 116.723 278.569 118.282L278.568 118.283L278.568 118.283C277.769 119.637 277.055 120.847 276.993 121.019C276.753 121.679 276.342 122.316 275.946 122.928C275.813 123.134 275.682 123.337 275.56 123.537C275.509 123.622 275.454 123.708 275.398 123.796L275.397 123.797C275.103 124.258 274.779 124.767 274.755 125.306C274.737 125.73 274.625 126.18 274.502 126.585C274.322 127.175 274.059 127.736 273.795 128.298C273.498 128.933 273.2 129.569 273.02 130.249C272.887 130.75 272.664 131.196 272.439 131.647L272.439 131.648C272.322 131.881 272.205 132.116 272.099 132.36C271.881 132.865 271.748 133.386 271.615 133.911C271.582 134.04 271.549 134.17 271.515 134.299C271.387 134.784 271.229 135.267 271.072 135.749L271.071 135.75C270.972 136.053 270.874 136.356 270.782 136.658C270.671 137.028 270.6 137.402 270.53 137.776C270.47 138.095 270.411 138.414 270.325 138.73C269.783 140.729 269.343 142.791 269.002 144.836C268.751 146.342 268.617 147.862 268.483 149.381C268.317 151.263 268.15 153.144 267.763 154.997C267.573 155.905 267.343 156.786 267.074 157.67C266.961 158.039 266.794 158.258 266.592 158.522C266.531 158.601 266.468 158.685 266.401 158.778C266.284 158.943 266.177 159.113 266.072 159.283C265.8 159.718 265.534 160.145 265.09 160.447C265.05 160.475 265.011 160.501 264.975 160.526C264.93 160.558 264.887 160.588 264.847 160.617C264.559 160.821 264.365 160.959 263.944 161.092C263.788 161.141 263.633 161.196 263.478 161.251C263.172 161.359 262.865 161.468 262.549 161.533C262.118 161.622 261.65 161.608 261.2 161.596L261.199 161.596C261.087 161.593 260.977 161.589 260.869 161.588C258.881 161.232 256.871 157.904 256.133 156.682C256.066 156.571 256.009 156.477 255.964 156.404C255.466 155.604 255.055 154.745 254.644 153.886C254.092 152.734 253.54 151.58 252.776 150.562C251.867 149.35 251.154 148.003 250.441 146.656C249.668 145.195 248.894 143.733 247.869 142.44C246.934 141.262 246.159 139.645 245.387 138.035C244.664 136.527 243.944 135.026 243.1 133.9C241.898 134.957 241.187 137.715 240.96 139.279C240.787 140.47 240.508 141.562 240.051 142.684C239.512 144.007 239.14 145.486 238.799 146.867C238.639 147.516 238.42 148.156 238.202 148.796C238.047 149.25 237.892 149.704 237.758 150.16C237.61 150.667 237.495 151.178 237.381 151.69C237.256 152.249 237.131 152.807 236.961 153.361C236.257 155.659 235.694 157.869 235.604 160.291C235.588 160.739 235.559 161.196 235.529 161.657C235.421 163.36 235.309 165.12 235.809 166.719C235.993 167.31 236.072 167.973 236.072 168.59C236.072 169.145 236.186 169.687 236.3 170.23C236.368 170.554 236.436 170.878 236.481 171.205C236.709 172.9 237.119 175.749 237.416 176.819C237.447 176.931 237.48 177.045 237.514 177.162C237.698 177.802 237.9 178.504 237.9 179.14C237.9 180.094 238.035 180.995 238.168 181.891C238.277 182.616 238.384 183.337 238.42 184.08C238.589 184.945 238.698 185.856 238.807 186.767C238.908 187.617 239.009 188.466 239.16 189.28C239.28 189.927 239.279 190.574 239.278 191.22C239.277 191.964 239.276 192.705 239.46 193.44C239.708 194.433 240.016 201.785 240.248 207.341C240.35 209.788 240.438 211.886 240.5 212.94C240.568 214.099 240.432 215.093 240.302 216.044C240.204 216.767 240.108 217.465 240.108 218.191V229.817C240.108 234.571 240.103 239.301 239.883 244.044C239.837 245.02 239.744 245.993 239.651 246.965C239.522 248.324 239.392 249.683 239.392 251.051C239.392 252.988 239.254 254.927 238.914 256.837C238.214 260.774 238.197 264.608 238.197 268.595C238.197 270.063 238.138 271.524 238.078 272.985C238.018 274.447 237.958 275.91 237.958 277.381L237.948 295.188C237.91 295.571 237.89 295.969 237.87 296.369C237.822 297.329 237.773 298.303 237.468 299.126C237.461 299.429 237.435 299.727 237.408 300.026C237.378 300.372 237.348 300.718 237.348 301.069C237.348 301.189 237.352 301.311 237.356 301.436C237.369 301.801 237.382 302.177 237.288 302.517C237.197 302.844 237.124 303.157 237.054 303.462C236.855 304.323 236.671 305.118 236.139 305.948C236.033 306.115 235.931 306.278 235.83 306.438C235.154 307.516 234.571 308.446 233.48 309.14C231.031 310.699 227.884 310.909 224.951 310.716C225.481 311.585 225.352 314.195 225.247 316.322C225.149 318.286 225.072 319.839 225.553 319.235C225.687 319.066 225.834 318.903 225.982 318.74L225.982 318.739C226.235 318.458 226.49 318.176 226.683 317.861C226.937 317.448 227.179 317.062 227.582 316.768C228.553 316.059 229.689 316.783 230.098 317.752C230.265 318.147 230.508 318.508 230.751 318.868C231.048 319.309 231.344 319.748 231.495 320.243C231.762 321.116 232.559 322.081 233.184 322.734C234.777 324.398 236.449 325.716 238.519 326.751C240.074 327.528 241.791 327.953 243.487 328.373C243.946 328.486 244.404 328.599 244.856 328.719C245.29 328.834 245.72 328.981 246.15 329.128L246.151 329.129C246.736 329.329 247.322 329.529 247.919 329.649C248.829 329.831 249.456 330.433 249.456 331.399C249.456 333.227 248.051 335.211 246.503 336.096C245.163 336.861 243.687 337.095 242.199 337.329L242.196 337.33C241.853 337.384 241.51 337.438 241.168 337.499C239.43 337.808 237.6 337.782 235.807 337.756C235.314 337.749 234.824 337.742 234.339 337.742C233.806 337.742 233.269 337.738 232.731 337.734C230.474 337.716 228.186 337.699 225.966 337.985C223.189 338.343 220.423 338.091 217.653 337.839C216.844 337.765 216.034 337.691 215.224 337.633C215.085 337.668 215.01 337.697 214.972 337.72C214.944 337.69 214.877 337.646 214.738 337.584C214.53 337.493 214.318 337.456 214.106 337.419C213.891 337.382 213.677 337.344 213.468 337.25L213.38 337.211C212.865 336.98 212.343 336.746 211.955 336.314C211.778 336.118 211.634 335.851 211.491 335.587C211.391 335.402 211.292 335.219 211.183 335.063C210.201 333.651 210.411 331.855 210.608 330.167C210.664 329.688 210.719 329.218 210.746 328.768C210.819 327.517 211.278 326.118 211.773 324.995C211.968 324.549 212.025 324.077 212.082 323.603C212.131 323.187 212.181 322.77 212.325 322.37C212.627 321.533 213.374 319.667 214.24 319.235C216.707 320.851 216.29 316.245 216.019 313.265C215.891 311.848 215.796 310.799 216.06 310.96C217.36 310.44 219.487 309.844 220.48 310.44C220.904 310.44 221.372 310.445 221.85 310.451C222.048 310.453 222.248 310.455 222.447 310.457C221.79 310.363 221.136 310.248 220.483 310.133C219.778 310.009 219.073 309.885 218.364 309.786C217.03 309.601 215.624 309.604 214.265 309.606H214.263C214.116 309.606 213.97 309.606 213.825 309.606C213.309 309.606 212.819 309.652 212.319 309.698L212.318 309.698C212.191 309.71 212.064 309.722 211.936 309.733C211.837 309.742 211.676 309.823 211.502 309.911C211.132 310.098 210.7 310.316 210.674 309.94C210.605 308.949 210.629 307.883 210.652 306.841C210.663 306.33 210.674 305.824 210.674 305.337C210.674 301.911 210.674 298.441 210.287 295.041C210.025 292.738 209.77 290.469 209.586 288.166C209.385 285.656 209.16 283.116 208.632 280.65C206.966 281.602 205.743 282.614 204.52 284.07C203.954 284.744 203.363 285.405 202.772 286.067C201.806 287.148 200.838 288.231 199.971 289.377C197.433 292.731 194.852 295.736 191.587 298.408C191.313 298.632 191.022 298.884 190.718 299.147C189.372 300.31 187.766 301.699 186.169 301.976C185.138 302.154 183.763 302.04 182.583 301.74C181.436 302.739 180.304 303.754 179.175 304.768L179.17 304.772C178.539 305.338 177.91 305.903 177.278 306.464C177.222 306.514 177.127 306.59 177.007 306.685C176.295 307.254 174.732 308.501 175.543 308.93C176.051 309.199 176.684 309.227 177.305 309.253C177.698 309.27 178.086 309.287 178.435 309.364C179.451 309.59 179.742 310.488 180.026 311.36C180.093 311.567 180.159 311.773 180.235 311.967C180.986 313.899 180.455 315.965 179.96 317.891C179.909 318.09 179.858 318.288 179.809 318.483C179.533 319.59 179.303 320.953 179.303 322.091C179.303 322.925 179.694 323.761 180.065 324.556C180.207 324.86 180.347 325.159 180.46 325.449C181.003 326.836 181.705 328.145 182.408 329.455C182.872 330.318 183.336 331.182 183.754 332.07C184.231 333.08 184.654 334.419 184.654 335.541C184.654 336.912 184.429 337.741 183.353 338.578C181.724 339.844 178.435 339.098 176.997 337.74C175.076 337.391 173.384 335.955 171.776 334.59C171.045 333.969 170.331 333.364 169.622 332.881C169.043 331.5 167.863 330.442 166.559 329.627C165.128 328.733 164.026 327.477 162.934 326.233C162.703 325.97 162.473 325.708 162.24 325.449C161.86 325.028 161.421 324.343 160.989 323.67C160.605 323.071 160.227 322.481 159.9 322.091C159.592 321.724 159.315 321.107 159.03 320.473C158.678 319.69 158.315 318.882 157.867 318.483C157.458 318.12 157.161 317.689 156.862 317.257C156.601 316.879 156.339 316.499 156 316.16C155.61 315.77 155.477 315.453 155.325 315.088C155.231 314.865 155.131 314.625 154.96 314.34C154.804 314.079 154.731 314.002 154.647 313.913C154.505 313.762 154.329 313.575 153.66 312.41C153.454 312.052 153.255 311.955 153.082 311.871C152.878 311.773 152.713 311.692 152.62 311.22C152.234 310.382 152.002 310.035 151.885 309.862C151.822 309.767 151.792 309.723 151.792 309.679C151.791 309.642 151.811 309.605 151.846 309.537C151.899 309.436 151.988 309.267 152.1 308.93C152.401 308.028 152.876 307.907 153.475 307.755C153.91 307.644 154.412 307.517 154.96 307.06C155.285 306.789 155.547 306.529 155.789 306.289C156.38 305.701 156.857 305.227 157.867 304.98C158.088 304.926 158.292 304.877 158.48 304.832L158.49 304.83L158.491 304.829C160.464 304.356 160.68 304.304 160.68 303.16C161.722 303.16 161.83 302.658 161.921 302.237C161.974 301.993 162.021 301.776 162.24 301.699C162.695 301.54 163.002 301.512 163.284 301.486C163.648 301.452 163.972 301.422 164.52 301.121C164.815 300.959 165.126 300.72 165.449 300.472C166.119 299.957 166.843 299.402 167.589 299.402C167.867 299.402 168.093 299.571 168.324 299.743C168.544 299.906 168.768 300.073 169.043 300.101C169.636 300.16 170.025 299.739 170.4 299.335C170.478 299.25 170.556 299.167 170.634 299.088C171.247 298.475 172.011 297.955 172.756 297.447L172.756 297.446C173.066 297.236 173.372 297.027 173.663 296.814C173.968 296.592 174.267 296.485 174.558 296.46C174.524 296.436 174.491 296.416 174.46 296.4ZM193.954 181.26C193.321 179.433 192.833 178.021 192.66 177.58C192.229 176.773 191.995 175.646 191.771 174.563C191.624 173.849 191.48 173.154 191.287 172.584C190.893 171.426 192.489 171.664 193.531 171.82C193.816 171.862 194.059 171.899 194.21 171.899C195.724 171.899 197.199 171.596 198.677 171.293C199.731 171.077 200.785 170.861 201.857 170.754C202.453 170.694 203.043 170.565 203.629 170.434C203.877 170.379 204.135 170.351 204.393 170.322C204.704 170.288 205.013 170.253 205.303 170.173C205.612 170.087 205.964 169.826 206.314 169.567C207.115 168.974 207.906 168.389 208.15 169.911C208.321 170.973 208.288 171.943 208.254 172.964C208.246 173.206 208.237 173.451 208.232 173.7C208.212 174.563 207.997 175.35 207.777 176.149C207.68 176.506 207.582 176.864 207.5 177.233C207.314 178.069 206.913 178.777 206.511 179.488C206.289 179.88 206.066 180.274 205.878 180.691C205.617 181.273 205.261 181.77 204.899 182.275C204.791 182.425 204.683 182.576 204.577 182.731C204.324 183.097 204.098 183.482 203.872 183.867C203.652 184.242 203.432 184.617 203.188 184.974C203.018 185.222 202.832 185.47 202.644 185.721C202.292 186.193 201.933 186.672 201.665 187.17C201.598 187.296 201.53 187.424 201.462 187.551C201.184 188.074 200.9 188.605 200.596 189.105C200.504 189.256 200.407 189.407 200.308 189.559C199.993 190.046 199.67 190.547 199.503 191.093C199.459 191.24 199.392 191.454 199.315 191.702C199.082 192.451 198.753 193.507 198.64 193.96C197.902 192.668 195.499 185.726 193.954 181.26Z" fill="white"/>
<path fill-rule="evenodd" clip-rule="evenodd" d="M174.897 342.159C159.67 342.159 144.548 342.159 129.425 342.16C128.642 342.16 127.842 342.142 127.452 341.42C127.181 340.918 128.032 340.043 128.69 340.081C129.229 340.113 129.768 340.162 130.308 340.162C168.39 340.166 268.873 340.165 306.956 340.176C307.292 340.176 307.762 340.247 307.934 340.443C308.19 340.733 308.452 341.407 308.329 341.492C307.869 341.808 307.253 342.13 306.695 342.132C296.337 342.168 223.579 342.159 213.221 342.159C200.481 342.159 187.741 342.159 174.897 342.159Z" fill="#202020"/>
<path fill-rule="evenodd" clip-rule="evenodd" d="M98.6701 342.673C89.2774 342.673 79.9884 342.674 70.6994 342.669C70.1165 342.669 69.4708 342.813 69.235 342.044C68.9991 341.274 69.3225 340.714 70.1815 340.613C70.4193 340.586 70.6644 340.609 70.9061 340.609C86.9979 340.609 103.09 340.61 119.182 340.607C119.924 340.606 120.671 340.539 120.639 341.539C120.615 342.318 120.153 342.672 119.078 342.673C112.31 342.673 105.542 342.673 98.6701 342.673Z" fill="#202020"/>
<path d="M218.448 74.0851C217.774 74.4404 217.101 74.7958 216.428 75.1512C216.144 75.3014 215.782 75.0162 215.748 74.6964C215.714 74.3767 215.902 74.0762 216.116 73.8354C216.72 73.1533 217.594 72.7169 218.503 72.644C218.709 72.6274 218.937 72.6355 219.095 72.7691C219.317 72.9569 219.299 73.3233 219.136 73.5639C218.972 73.8044 218.705 73.9493 218.448 74.0851Z" fill="#202020"/>
<path d="M221.905 85.1743C222.282 84.799 223.016 85.0533 223.383 84.6678C223.697 84.3375 223.511 83.7847 223.229 83.4261C222.948 83.0676 222.571 82.7341 222.521 82.2811C222.471 81.8281 223.07 81.358 223.37 81.7018C223.852 82.2561 224.291 82.8818 224.439 83.6018C224.586 84.3217 224.382 85.1526 223.785 85.5815C223.188 86.0104 222.197 85.8486 221.905 85.1743Z" fill="#202020"/>
<path d="M228.138 78.5056C227.996 78.2131 227.978 77.8627 228.09 77.5572C228.161 77.3626 228.283 77.1868 228.44 77.0518C228.95 76.6143 229.828 76.7189 230.22 77.264C230.613 77.8091 230.433 78.6746 229.856 79.0187C229.279 79.3628 228.432 79.1097 228.138 78.5056Z" fill="#202020"/>
<path d="M219.254 76.4789C219.667 76.3794 220.121 76.4681 220.466 76.7154C220.742 76.9127 220.946 77.207 221.035 77.5339C221.239 78.2884 220.733 79.1606 219.976 79.3578C219.219 79.555 218.351 79.0409 218.161 78.2827C217.971 77.5245 218.493 76.662 219.254 76.4789Z" fill="#202020"/>
<path d="M280.882 95.8282C280.893 95.4572 280.906 95.0746 281.06 94.737C281.214 94.3994 281.548 94.1149 281.919 94.1361C282.289 94.1572 282.61 94.5884 282.437 94.9166C281.845 96.0375 281.757 97.4123 282.2 98.5997C282.375 99.0673 281.583 99.3923 281.207 99.0641C280.831 98.736 280.816 98.1668 280.83 97.6679C280.848 97.0546 280.865 96.4414 280.882 95.8282Z" fill="#202020"/>
<path d="M223.707 92.0868C222.485 93.2945 220.55 93.7199 218.934 93.1362C217.318 92.5525 216.102 90.9891 215.935 89.2798C215.875 88.6614 215.998 87.9377 216.533 87.6203C217.271 87.1815 218.159 87.7954 218.881 88.2602C219.962 88.9552 221.228 89.3598 222.512 89.4205C223.083 89.4474 223.727 89.436 224.126 89.8447C224.716 90.4505 224.309 91.492 223.707 92.0868ZM223.624 90.7924C223.355 90.4148 222.82 90.3807 222.358 90.3455C220.76 90.224 219.199 89.6554 217.897 88.721C217.628 88.5274 217.216 88.7169 217.08 89.0194C216.943 89.3218 217.012 89.6765 217.125 89.9884C217.583 91.2547 218.79 92.217 220.128 92.3824C221.465 92.5478 222.87 91.9087 223.624 90.7924Z" fill="#202020"/>
<path d="M243.174 134.647C240.522 143.44 237.852 152.328 237.282 161.494C236.706 170.75 238.289 179.984 239.304 189.202C243.108 223.738 238.957 258.595 238.56 293.337C238.511 297.646 238.475 302.145 236.492 305.971C234.509 309.797 229.893 312.644 225.858 311.125C225.755 313.344 225.651 315.563 225.547 317.782C226.311 316.726 227.56 316.034 228.861 315.946C232.137 323.017 239.324 328.119 247.083 328.882C249.657 329.136 250.282 333.06 248.542 334.974C246.803 336.887 243.971 337.246 241.392 337.448C233.122 338.098 224.824 338.388 216.529 338.317C213.106 338.288 210.448 334.95 209.958 331.564C209.467 328.177 210.589 324.788 211.696 321.55C212.359 319.607 215.273 317.595 215.809 319.576C215.555 316.71 215.301 313.843 215.047 310.977C213.576 310.84 212.105 310.702 210.634 310.565C210.034 300.952 209.435 291.339 208.835 281.725C201.297 286.723 196.978 295.75 189.065 300.13C184.538 302.636 178.715 303.774 176.161 308.273C179.507 308.432 181.253 312.467 181.16 315.814C181.068 319.16 179.957 322.582 180.925 325.787C182.178 329.94 186.738 333.989 184.479 337.694C182.263 341.329 176.63 339.263 173.307 336.6C164.023 329.161 156.342 319.734 150.933 309.141C156.16 304.84 162.027 301.318 168.281 298.725C170.218 299.737 172.958 298.152 173.044 295.969C169.023 293.823 167.501 288.585 168.306 284.101C169.111 279.617 171.734 275.701 174.295 271.932C180.588 262.675 186.88 253.417 193.172 244.159C197.701 237.496 202.4 229.141 198.928 221.873C169.855 259.373 140.782 296.873 111.708 334.373C109.603 337.088 104.464 335.359 103.942 331.963C103.42 328.567 106.94 325.417 110.364 325.724C103.306 320.459 96.2485 315.194 89.1908 309.929C87.8222 308.908 86.3493 307.724 86.0601 306.042C85.7562 304.274 86.8664 302.604 87.9277 301.157C97.467 288.153 107.54 275.54 118.112 263.36C121.191 259.812 124.413 256.221 128.586 254.06C132.759 251.899 138.141 251.442 141.997 254.128C147.721 258.114 153.444 262.1 159.167 266.086C170.475 251.399 181.783 236.713 193.091 222.026C188.905 215.711 193.183 207.262 192.275 199.742C191.284 191.53 184.109 184.945 183.583 176.69C183.326 172.657 179.975 169.48 176.416 167.561C172.857 165.643 168.867 164.523 165.547 162.215C158.051 157.006 155.602 146.573 157.616 137.673C159.631 128.773 165.288 121.154 171.367 114.347C177.447 107.539 184.143 101.172 188.956 93.4192C193.374 86.304 196.051 78.2656 199.796 70.7755C203.542 63.2854 208.721 56.0313 216.297 52.4555C223.873 48.8797 234.221 50.1877 238.868 57.1549C242.616 62.773 241.813 70.2639 239.8 76.7094C237.787 83.1549 234.696 89.386 234.247 96.1232C233.799 102.86 237.013 110.548 243.516 112.378C253.46 115.177 257.747 126.603 260.596 136.528C265.259 126.898 269.922 117.269 274.585 107.64C271.311 107.323 268.037 107.005 264.762 106.688C264.805 101.183 265.087 95.7333 265.178 90.2393C265.195 89.1891 265.996 88.3023 267.043 88.2176C278.316 87.3055 274.729 91.729 286.205 90.4701C287.798 90.719 289.602 92.2163 290.832 93.2577C294.596 96.4444 291.035 102.369 287.8 106.09C277.002 118.507 270.192 134.334 268.601 150.708C268.349 153.306 268.201 156.003 267 158.322C265.799 160.64 263.184 162.474 260.65 161.84C258.392 161.274 257.009 159.063 255.862 157.039C251.633 149.575 247.404 142.111 243.174 134.647ZM181.84 299.928C183.077 300.519 184.421 301.056 185.782 300.884C187.488 300.668 188.843 299.399 190.067 298.192C193.658 294.652 197.228 291.09 200.777 287.507C211.433 276.747 222.342 264.981 225.506 250.175C226.349 246.227 226.607 242.181 226.862 238.152C227.43 229.188 227.997 220.178 227.116 211.24C226.667 206.689 225.916 201.768 228.204 197.808C228.272 205.813 228.339 213.819 228.407 221.825C228.481 230.618 228.55 239.471 226.998 248.126C225.446 256.782 222.158 265.323 216.26 271.849C213.126 275.317 208.977 279.061 209.76 283.669C211.146 291.831 211.576 300.155 211.035 308.416C210.99 309.11 211.881 309.419 212.572 309.495C218.53 310.154 224.56 310.158 230.519 309.509C232.587 309.283 235.157 308.477 235.341 306.407C238.515 270.685 239.836 234.798 239.299 198.939C239.203 192.584 239.04 186.158 237.399 180.018C237.233 179.395 236.755 178.617 236.158 178.859C227.183 182.494 216.63 182.006 208.03 177.558C205.494 181.767 203.101 186.061 200.856 190.432C199.592 192.893 198.354 195.779 199.43 198.328C201.469 203.156 201.825 208.674 200.425 213.724C199.549 216.88 198.101 220.562 200.115 223.146C202.149 225.753 202.274 229.453 201.278 232.605C200.282 235.757 198.317 238.496 196.412 241.198C186.414 255.382 177.248 270.151 168.977 285.406C167.652 287.849 169.535 290.777 171.524 292.719C174.538 295.664 178.038 298.11 181.84 299.928ZM208.939 112.124C208.431 111.701 207.892 111.26 207.241 111.149C206.637 111.046 206.027 111.243 205.447 111.437C203.538 112.077 201.629 112.716 199.72 113.355C198.068 113.909 196.384 114.479 194.992 115.526C193.341 116.767 192.23 118.58 191.188 120.364C189.704 122.904 188.277 125.477 186.909 128.082C186.65 128.575 186.386 129.098 186.408 129.655C186.43 130.224 186.747 130.734 187.065 131.207C189.777 135.243 193.285 138.743 197.329 141.447C197.477 141.546 197.636 141.648 197.814 141.662C198.058 141.68 198.28 141.533 198.472 141.382C201.052 139.363 201.972 135.491 200.573 132.528C201.121 132.159 201.691 132.972 201.855 133.612C205.414 147.503 207.727 161.713 208.758 176.015C208.841 177.176 210.194 177.735 211.322 178.028C215.448 179.099 219.64 180.065 223.903 180.157C228.165 180.249 232.543 179.412 236.132 177.114C236.448 176.911 236.8 176.588 236.687 176.23C234.449 169.148 234.422 161.513 235.578 154.177C236.733 146.841 239.033 139.739 241.391 132.697C241.558 132.2 241.946 131.587 242.437 131.768C243.21 134.013 244.833 135.954 246.906 137.113C250.064 134.505 253.872 132.688 257.888 131.876C256.379 128.515 254.87 125.154 253.362 121.793C252.44 119.74 251.466 117.617 249.752 116.158C248 114.667 245.687 114.051 243.459 113.478C239.134 112.366 234.809 111.254 230.484 110.141C229.604 109.915 228.566 109.721 227.873 110.308C227.118 110.947 227.22 112.112 227.328 113.094C227.715 116.63 227.3 120.252 226.125 123.61C226.046 123.836 225.948 124.079 225.738 124.193C225.421 124.366 225.038 124.16 224.738 123.959C219.272 120.291 213.996 116.339 208.939 112.124ZM180.671 167.704C176.94 153.53 180.808 138.376 187.001 125.09C188.655 121.54 190.512 118.014 193.223 115.186C195.934 112.358 199.624 110.272 203.542 110.239C208.587 110.196 211.949 104.703 212.389 99.6806C212.83 94.6582 211.415 89.6095 211.861 84.5876C212.098 81.9187 212.855 79.3276 213.385 76.701C213.813 74.5754 214.093 72.42 214.221 70.2556C214.247 69.8127 214.253 69.3251 213.974 68.98C213.542 68.4458 212.724 68.5535 212.037 68.5292C211.35 68.505 210.496 67.9745 210.754 67.3381C218.551 68.7306 226.909 66.6083 233.095 61.665C233.695 63.4159 229.964 64.3865 230.513 66.154C232.253 71.7533 233.461 77.63 232.871 83.4633C232.281 89.2967 229.705 95.1172 225.029 98.6571C224.553 99.0168 224.029 99.3917 223.85 99.9598C223.711 100.397 223.806 100.871 223.902 101.319C224.603 104.614 225.96 108.571 229.285 109.117C232.026 109.566 234.767 110.016 237.507 110.466C235.251 108.461 233.676 105.704 233.095 102.743C232.617 100.304 232.799 97.78 233.224 95.3318C234.197 89.7187 236.407 84.4071 238.029 78.9457C239.65 73.4844 240.682 67.6263 239.243 62.1141C237.804 56.6019 233.425 51.8529 227.76 51.22C225.863 51.008 223.873 50.9952 222.035 51.5114C212.89 54.0794 206.341 62.1567 201.973 70.587C197.606 79.0173 194.762 88.2405 189.617 96.2202C185.238 103.01 179.346 108.661 173.829 114.564C168.311 120.467 163.021 126.851 160.255 134.441C157.489 142.031 157.631 151.096 162.417 157.605C166.631 163.335 173.705 166.256 180.671 167.704ZM134.113 254.004C129.139 255.378 124.527 258.038 120.847 261.655C119.035 263.437 117.453 265.436 115.877 267.43C106.838 278.865 97.798 290.299 88.7584 301.734C87.9804 302.718 87.1636 303.81 87.1752 305.064C87.1913 306.805 88.7536 308.082 90.1708 309.094C91.3063 309.906 92.4419 310.717 93.5775 311.528C94.0662 311.878 94.8093 312.203 95.1918 311.74C110.332 293.419 125.471 275.098 140.611 256.777C140.993 256.314 141.606 255.806 142.116 256.123C142.72 256.499 142.312 257.428 141.859 257.977C126.767 276.217 111.676 294.457 96.5842 312.697C96.1401 313.234 96.7515 313.989 97.3093 314.406C98.9064 315.602 100.504 316.797 102.101 317.993C102.366 318.192 102.674 318.402 103.001 318.347C103.294 318.298 103.507 318.052 103.693 317.822C119.027 298.949 134.361 280.077 149.695 261.204C146.527 258.928 143.359 256.651 140.191 254.375C138.485 253.148 136.139 253.445 134.113 254.004ZM105.102 320.259C108.081 322.526 111.059 324.793 114.038 327.061C114.254 327.225 114.497 327.398 114.767 327.378C115.086 327.353 115.317 327.074 115.508 326.817C130.109 307.178 144.71 287.54 159.312 267.901C156.813 266.134 154.314 264.367 151.816 262.599C151.623 262.463 151.402 262.32 151.17 262.36C150.958 262.397 150.804 262.575 150.669 262.741C135.431 281.477 120.193 300.213 104.955 318.949C104.785 319.157 104.606 319.399 104.642 319.665C104.677 319.92 104.898 320.103 105.102 320.259ZM190.78 155.549C191.509 153.255 192.58 151.086 193.721 148.967C194.833 146.902 196.015 144.874 197.264 142.889C192.896 139.384 188.437 135.778 185.534 130.99C183.381 137.123 181.357 143.363 180.673 149.827C179.133 164.379 184.474 178.753 190.75 191.974C192.14 194.9 193.608 197.912 193.729 201.149C193.845 204.232 192.724 207.217 192.331 210.277C191.83 214.186 192.554 218.243 194.376 221.738C194.679 222.319 195.052 222.922 195.656 223.177C196.26 223.431 197.127 223.121 197.191 222.469C197.444 219.92 198.46 217.516 199.091 215.033C200.766 208.451 199.698 201.463 197.776 194.948C195.855 188.434 193.098 182.183 191.305 175.633C189.512 169.082 188.721 162.021 190.78 155.549ZM225.591 96.8157C227.097 95.7768 228.048 94.1192 228.816 92.4595C230.646 88.5023 231.722 84.1976 231.967 79.8447C232.019 78.9176 232.03 77.9631 231.712 77.0905C231.394 76.218 230.681 75.4346 229.764 75.2818C229.242 75.1948 229.306 74.3169 229.782 74.0862C230.258 73.8554 230.821 74.0558 231.311 74.2569C231.16 71.7907 230.611 69.3492 229.692 67.0553C229.463 66.4836 228.949 65.8065 228.385 66.0543C224.621 67.7075 220.538 68.6325 216.429 68.763C215.684 68.7867 215.563 69.8309 215.612 70.5745C216.022 76.7554 211.587 82.7403 212.922 88.7895C214.446 95.7008 213.866 103.437 209.623 109.103C209.347 109.471 209.04 109.914 209.181 110.352C209.264 110.609 209.485 110.794 209.696 110.963C214.736 115.002 219.859 118.939 225.06 122.769C226.171 119.809 226.227 116.574 226.269 113.412C226.295 111.444 226.299 109.381 225.384 107.637C224.807 106.538 223.89 105.623 223.464 104.458C223.11 103.492 223.125 102.434 222.912 101.428C222.7 100.421 222.152 99.3694 221.173 99.0533C219.65 98.562 218.204 97.8344 216.903 96.9048C216.46 96.5889 215.995 96.1751 215.986 95.6319C215.976 95.0886 216.782 94.6481 217.075 95.1055C218.819 97.8244 222.932 98.6505 225.591 96.8157ZM258.659 147.095C257.869 146.233 258.395 144.873 258.862 143.801C260.284 140.53 260.707 136.514 258.728 133.547C258.559 133.293 258.352 133.035 258.058 132.954C257.821 132.889 257.569 132.953 257.333 133.019C254.101 133.923 251.025 135.382 248.281 137.313C247.875 137.598 247.428 138.085 247.671 138.518C250.965 144.384 254.017 150.386 256.816 156.503C257.364 157.7 257.919 158.928 258.839 159.87C259.759 160.812 261.135 161.424 262.405 161.076C264.273 160.564 265.044 158.39 265.533 156.518C267.854 147.623 270.175 138.729 272.496 129.834C273.407 126.343 274.326 122.83 275.839 119.553C277.352 116.277 279.509 113.217 282.477 111.162C284.774 109.57 286.379 107.014 286.812 104.254C283.667 103.561 280.277 104.042 277.449 105.582C276.778 105.948 276.11 106.4 275.757 107.077C275.434 107.696 275.415 108.42 275.343 109.114C274.789 114.448 270.91 118.726 268.082 123.285C264.522 129.023 262.508 135.564 260.621 142.048C260.116 143.787 259.606 145.552 258.659 147.095ZM206.891 167.672C205.708 158.308 204.519 148.91 202.073 139.794C199.241 144.143 196.396 148.515 194.3 153.263C192.204 158.01 190.874 163.192 191.231 168.369C191.284 169.136 191.422 169.989 192.034 170.454C192.411 170.739 192.899 170.821 193.368 170.88C197.645 171.423 202.064 170.808 206.031 169.119C206.347 168.985 206.685 168.82 206.835 168.511C206.959 168.255 206.926 167.954 206.891 167.672ZM175.466 314.112C173.79 313.089 173.333 310.248 171.373 310.139C169.378 310.027 168.056 307.926 167.768 305.95C167.48 303.974 167.866 301.942 167.544 299.972C167.523 299.842 167.49 299.699 167.382 299.624C167.216 299.51 166.993 299.625 166.827 299.739C163.578 301.956 160.328 304.173 157.079 306.39C160.936 307.804 162.896 311.96 164.779 315.608C166.612 319.16 168.726 322.567 171.093 325.789C171.519 326.368 172.141 327.011 172.833 326.813C175.132 326.156 177.652 326.299 179.863 327.211C179.77 325.465 178.148 323.943 176.399 323.959C175.935 323.964 175.931 323.158 176.35 322.956C176.768 322.754 177.259 322.948 177.691 323.117C178.124 323.285 178.659 323.413 179.017 323.118C178.992 322.609 178.966 322.1 178.941 321.592C177.636 321.529 176.36 320.977 175.421 320.069C176.069 318.792 178.652 321.151 179.257 319.853C178.465 318.736 177.149 318.008 175.782 317.932C175.504 317.378 176.402 316.935 176.991 317.128C177.579 317.32 178.153 317.776 178.748 317.603C179.768 317.307 179.402 315.641 178.472 315.128C177.542 314.616 176.372 314.666 175.466 314.112ZM234.543 325.059C234.381 324.274 233.275 323.881 232.653 324.388C232.294 324.681 232.125 325.172 231.735 325.423C231.345 325.674 230.625 325.305 230.874 324.914C231.623 324.662 232.023 323.764 231.88 322.987C231.738 322.21 231.163 321.568 230.494 321.148C229.431 321.955 228.044 322.324 226.72 322.151C225.479 321.99 224.492 323.092 223.436 323.763C221.601 324.928 219.024 324.77 217.344 323.391C215.991 322.28 215.236 320.523 213.76 319.581C212.626 322.91 211.886 326.372 211.559 329.873C211.522 330.27 211.679 330.846 212.067 330.754C218.612 329.21 225.413 331.091 231.931 332.745C232.994 333.015 234.409 333.131 234.901 332.152C235.755 330.45 237.293 329.104 239.094 328.482C239.064 327.776 238.014 327.626 237.407 327.989C236.801 328.353 236.354 328.991 235.675 329.189C235.229 329.046 235.375 328.344 235.733 328.043C236.091 327.741 236.594 327.54 236.728 327.091C236.938 326.388 236.091 325.863 235.399 325.618C235.077 326.588 234.015 327.253 233.001 327.119C233.515 326.432 234.029 325.746 234.543 325.059ZM191.641 171.913C191.825 174.149 192.569 176.296 193.306 178.416C195.047 183.415 196.788 188.415 198.528 193.415C199.565 189.236 202.197 185.67 204.359 181.946C206.521 178.222 208.292 173.898 207.355 169.695C202.453 171.857 196.949 172.633 191.641 171.913ZM181.277 338.52C181.85 338.603 182.639 338.492 182.7 337.917C177.446 335.592 173.536 331.038 170.2 326.362C167.293 322.285 164.675 318.002 162.374 313.555C161.348 311.572 160.305 309.464 158.451 308.219C156.597 306.974 153.651 307.044 152.522 308.97C152.332 309.294 152.544 309.698 152.752 310.011C157.244 316.78 161.759 323.58 167.234 329.582C171.05 333.766 175.671 337.713 181.277 338.52ZM274.247 105.579C274.34 105.574 274.435 105.569 274.518 105.528C274.752 105.412 274.773 105.092 274.761 104.831C274.534 100.044 274.308 95.257 274.082 90.4701C274.063 90.0708 273.59 90.1712 273.209 90.0484C272.829 89.9256 272.456 89.9744 272.058 90.011C270.391 90.164 268.723 90.317 267.055 90.4701C266.571 90.5145 266.516 90.707 266.499 91.1927C266.343 95.6236 266.188 100.054 266.033 104.485C266.022 104.784 266.016 105.1 266.162 105.361C266.459 105.889 267.193 105.926 267.799 105.896C269.949 105.791 272.098 105.685 274.247 105.579ZM246.459 334.472C243.788 333.38 240.773 334.149 237.892 334.321C229.949 334.795 222.211 330.584 214.3 331.437C213.363 331.538 212.346 331.761 211.768 332.505C210.879 333.649 211.586 335.447 212.819 336.209C214.051 336.97 215.587 336.986 217.036 336.978C223.678 336.941 230.32 336.904 236.962 336.868C240.305 336.849 243.976 336.71 246.459 334.472ZM174.628 296.947C174.541 296.897 174.449 296.845 174.348 296.842C174.174 296.837 174.033 296.975 173.915 297.104C172.644 298.486 171.374 299.869 170.103 301.251C169.814 301.565 169.523 301.884 169.324 302.261C169.092 302.704 168.999 303.206 168.945 303.703C168.803 305.004 168.918 306.381 169.581 307.509C170.244 308.638 171.544 309.453 172.84 309.266C174.454 309.033 175.468 307.479 176.594 306.3C178.308 304.506 180.699 303.316 181.925 301.159C179.493 299.755 177.061 298.351 174.628 296.947ZM224.11 321.594C224.361 321.27 224.569 320.906 224.665 320.509C224.823 319.851 224.668 319.165 224.563 318.497C224.241 316.454 224.395 314.37 224.512 312.304C224.542 311.766 224.376 311.019 223.838 311.053C221.586 311.195 219.318 311.084 217.092 310.722C216.778 310.671 216.49 310.958 216.419 311.268C216.348 311.578 216.433 311.899 216.511 312.208C217.13 314.661 217.312 317.225 217.043 319.741C216.999 320.154 216.944 320.574 217.027 320.982C217.164 321.656 217.67 322.205 218.248 322.581C220.072 323.768 222.775 323.312 224.11 321.594ZM286.205 102.941C286.735 103.036 287.363 103.138 287.74 102.754C286.162 101.932 284.993 100.367 284.653 98.6215C284.313 96.8762 284.81 94.9871 285.963 93.6336C286.069 93.5102 286.184 93.3803 286.204 93.2194C286.223 93.0585 286.089 92.8709 285.931 92.9064C283.704 93.4069 281.419 93.646 279.136 93.6173C278.797 93.613 278.433 93.6098 278.152 93.8006C277.649 94.1426 277.684 94.8818 277.775 95.483C278.158 98.0025 278.021 100.002 278.403 102.522C278.417 102.612 278.431 102.704 278.472 102.786C278.668 103.173 279.241 103.064 279.65 102.919C281.574 102.237 284.196 102.583 286.205 102.941ZM183.899 335.81C183.67 333.519 182.855 331.289 181.553 329.39C181.386 329.147 181.209 328.906 180.981 328.718C180.704 328.489 180.366 328.349 180.028 328.227C178.126 327.536 176.056 327.311 174.049 327.577C173.645 327.63 173.136 327.827 173.158 328.234C173.167 328.393 173.263 328.531 173.355 328.66C175.771 331.998 178.946 334.784 182.57 336.746C182.875 336.911 183.246 337.072 183.552 336.91C183.913 336.719 183.939 336.217 183.899 335.81ZM108.022 334.774C110.038 335.313 112.36 333.888 112.791 331.847C113.222 329.805 111.675 327.564 109.612 327.243C108.794 327.116 107.936 327.261 107.205 327.65C105.9 328.345 105.07 329.843 105.172 331.317C105.282 332.907 106.482 334.362 108.022 334.774ZM248.976 331.574C248.932 331.229 248.86 330.878 248.666 330.589C248.111 329.763 246.907 329.824 245.912 329.87C244.238 329.947 242.55 329.713 240.96 329.184C240.018 328.871 239.017 329.405 238.207 329.978C237.186 330.699 236.194 331.566 235.752 332.734C236.794 333.211 238 333.048 239.14 332.924C241.002 332.722 242.879 332.65 244.751 332.711C245.654 332.74 246.576 332.804 247.406 333.16C247.605 333.246 247.805 333.349 248.022 333.358C248.407 333.374 248.752 333.073 248.897 332.715C249.042 332.358 249.024 331.956 248.976 331.574ZM289.713 101.924C290.442 101.723 290.82 100.927 291.018 100.198C291.505 98.3951 291.428 96.3768 290.473 94.7718C289.953 93.8977 288.992 93.115 288.004 93.357C287.37 93.512 286.894 94.0649 286.663 94.6743C286.433 95.2837 286.409 95.9494 286.402 96.6009C286.391 97.6079 286.414 98.6336 286.731 99.5897C287.047 100.546 287.7 101.436 288.633 101.816C288.974 101.955 289.358 102.021 289.713 101.924ZM179.692 311.664C179.696 311.438 179.699 311.201 179.599 310.997C179.404 310.598 178.908 310.47 178.472 310.386C177.554 310.209 176.637 310.032 175.72 309.855C175.054 309.727 174.13 309.752 173.976 310.413C173.894 310.767 174.108 311.117 174.332 311.404C175.327 312.679 176.723 313.638 178.272 314.108C178.715 314.243 179.299 314.29 179.543 313.896C179.651 313.723 179.658 313.508 179.661 313.305C179.672 312.758 179.682 312.211 179.692 311.664ZM229.593 320.691C229.735 320.623 229.879 320.546 229.973 320.421C230.192 320.126 230.049 319.709 229.879 319.384C229.467 318.597 228.938 317.871 228.313 317.239C228.223 317.147 228.116 317.052 227.987 317.054C227.831 317.056 227.719 317.198 227.632 317.328C226.98 318.31 226.465 319.383 226.105 320.506C225.994 320.855 225.935 321.318 226.244 321.514C227.402 321.475 228.55 321.192 229.593 320.691Z" fill="#202020"/>
<path d="M110.024 85.4954C111.18 84.1837 112.26 82.9133 113.393 81.692C113.603 81.4657 114.026 81.4373 114.351 81.3175C114.237 81.6148 114.184 81.9587 113.998 82.2015C113.116 83.3581 112.148 84.4538 111.326 85.6503C111.126 85.9414 111.185 86.7183 111.429 86.9488C112.145 87.6243 112.995 88.1695 113.837 88.694C114.093 88.8541 114.608 88.9361 114.81 88.7883C115.572 88.2321 116.27 87.5824 116.943 86.9186C117.017 86.8461 116.846 86.3783 116.672 86.2283C115.998 85.6452 115.251 85.1443 114.585 84.5515C114.364 84.3541 114.306 83.9727 114.174 83.6754C114.494 83.6942 114.887 83.6011 115.12 83.7529C115.835 84.2169 116.5 84.76 117.162 85.3C118.421 86.3272 118.389 87.168 117.088 88.2215C116.561 88.6483 116.024 89.0693 115.542 89.5444C114.923 90.1551 114.319 90.1698 113.626 89.6875C112.696 89.0395 111.711 88.4654 110.814 87.7749C110.117 87.2376 109.556 86.5568 110.024 85.4954Z" fill="#FFB61D"/>
<path d="M321.099 212.435C320.207 212.322 318.776 211.117 318.594 210.317C318.206 208.608 318.666 207.209 320.047 206.587C320.824 206.237 321.757 206.17 322.627 206.127C322.901 206.114 323.2 206.59 323.487 206.842C323.105 206.945 322.681 207.207 322.348 207.12C321.556 206.913 320.921 207.022 320.281 207.529C319.342 208.274 319.359 209.699 319.76 210.493C320.314 211.592 321.351 211.517 322.301 211.417C323.048 211.339 324.12 210.253 323.983 209.205C323.942 208.888 324.257 208.525 324.409 208.183C324.568 208.518 324.852 208.849 324.865 209.189C324.944 211.267 323.22 212.777 321.099 212.435Z" fill="#FFB61D"/>
<path d="M234.942 193.18C234.422 177.32 239.918 211.366 239.98 212.42C240.048 213.579 239.912 214.573 239.782 215.524L239.782 215.524L239.782 215.524C239.684 216.247 239.588 216.945 239.588 217.671V229.297C239.588 234.051 239.583 238.781 239.363 243.524C239.317 244.5 239.224 245.473 239.131 246.445L239.131 246.446C239.002 247.805 238.872 249.163 238.872 250.531C238.872 252.468 238.734 254.407 238.394 256.317C237.694 260.254 237.677 264.088 237.677 268.075C237.677 269.543 237.618 271.004 237.558 272.465C237.498 273.927 237.438 275.39 237.438 276.861L237.428 294.668C237.39 295.051 237.37 295.449 237.35 295.849C237.302 296.809 237.253 297.783 236.948 298.606C236.941 298.909 236.915 299.207 236.889 299.506L236.888 299.506L236.888 299.506C236.858 299.852 236.828 300.198 236.828 300.549C236.828 300.669 236.832 300.791 236.836 300.916C236.849 301.281 236.862 301.656 236.768 301.997C236.677 302.324 236.604 302.637 236.534 302.942C236.335 303.803 236.151 304.598 235.619 305.428C235.513 305.595 235.411 305.758 235.31 305.918C234.634 306.996 234.051 307.926 232.96 308.62C230.511 310.179 227.751 309.5 224.38 309.66C201.053 310.766 233.74 301.34 230.36 263.9C237.35 253.76 235.196 200.931 234.942 193.18Z" fill="#E6E6E6"/>
</svg>
