<svg width="390" height="390" viewBox="0 0 390 390" fill="none" xmlns="http://www.w3.org/2000/svg">
<path fill-rule="evenodd" clip-rule="evenodd" d="M221.566 323.328C259.229 323.328 292.281 295.312 273.719 257.259C255.157 219.206 324.126 220.435 344.386 194.136C369.093 162.063 361.938 25.916 203.327 108.918C177.919 122.213 112.667 95.2392 91.0228 108.623C65.5452 124.378 29.6996 156.638 65.5452 189.684C83.202 205.961 19.8981 248.211 47.6239 286.055C74.6774 322.982 93.6414 287.78 134.83 295.312C176.019 302.844 193.594 323.328 221.566 323.328Z" fill="#348AF9"/>
<path d="M177.851 257.127C177.851 257.127 186.523 253.048 189.761 250.21C192.998 247.372 197.023 240.321 197.023 240.321C197.023 240.321 241.235 272.25 270.063 267.696C276.705 266.646 289.647 262.231 290.473 254.453C292.727 233.211 261.545 227.783 268.356 217.011C272.514 210.436 285.429 220.222 285.429 220.222L338.999 246.571C338.999 246.571 320.492 292.191 275.58 294.019C220.333 296.268 177.851 257.127 177.851 257.127Z" fill="white"/>
<path fill-rule="evenodd" clip-rule="evenodd" d="M135.379 78.4707C134.877 78.2733 132.177 74.967 128.749 74.3653C127.191 74.0918 128.605 76.0754 126.89 76.0932C121.784 76.1464 113.487 75.1871 111.95 76.0932C110.807 76.7645 113.323 79.1096 111.95 79.2173C98.9904 80.2331 79.2202 93.1724 74.9309 99.4499C73.5658 101.448 84.6061 98.0582 82.8471 99.0458C80.8728 100.154 78.6831 107.413 77.3739 113.019C76.4676 116.879 75.8969 121.847 75.6955 127.252C75.5277 131.918 75.5948 132.69 76.2662 135.241C77.0383 138.095 77.6425 138.934 78.6831 138.531C79.0524 138.397 79.2202 137.893 79.2202 136.953C79.2202 136.215 79.623 133.999 80.1266 132.019L80.9994 128.46L81.3686 129.937C81.8386 131.649 84.5912 136.953 87.0753 140.814C87.2092 141.018 87.7857 140.758 88.3055 139.502C88.7791 138.357 88.5869 136.528 89.3915 134.567C91.2244 130.102 94.8233 124.297 98.9905 119.65C105.149 112.782 107.193 104.833 112.966 98.4531C123.74 86.546 137.262 79.2096 135.379 78.4707Z" fill="white"/>
<path fill-rule="evenodd" clip-rule="evenodd" d="M83.0002 100.666C81.2719 102.056 78.7065 113.328 78.6625 113.517C77.7561 117.377 76.8824 130.783 77.7755 133.321C78.6685 135.859 81.1692 126.71 81.1692 126.71C81.1692 126.71 84.9489 136.525 88.2887 139.216C88.4313 139.331 84.3189 127.073 83.0002 119.917C81.2594 110.471 83.9838 99.875 83.0002 100.666Z" fill="#E6E6E6"/>
<path fill-rule="evenodd" clip-rule="evenodd" d="M147.418 298.091C150.641 297.386 156.078 294.931 158.16 294.091C160.242 293.252 166.586 284.294 168.868 274.19C170.513 266.738 171.352 256.13 170.413 254.351C170.274 254.098 169.766 249.275 171.118 250.85C174.122 254.351 177.689 259.847 188.942 249.998C192.007 247.316 196.07 243.854 195 240.793C192.007 232.23 179.034 214.986 177.056 213.68C174.691 212.119 162.739 213.446 144.951 208.196C124.778 202.242 116.379 184.709 108.484 186.991C102.1 188.837 86.8047 200.179 82.9659 207.362C64.8432 241.272 86.8047 265.033 91.8061 271.858L96.6622 273.955L96.83 278.285L97.065 281.004C97.5014 286.207 97.6692 286.677 100.019 288.423C105.894 292.888 117.475 297.05 127.948 298.527C132.816 299.199 143.39 298.964 147.418 298.091Z" fill="white"/>
<path fill-rule="evenodd" clip-rule="evenodd" d="M98.5721 276.7L98.807 279.419C99.2434 284.622 99.4113 285.092 101.761 286.838C105.227 289.472 110.678 292 116.717 293.935C120.914 295.279 125.395 296.336 129.69 296.942C134.558 297.613 145.132 297.378 149.16 296.506C151.151 296.074 134.773 283.207 125.125 286.838C117.715 289.626 100.251 268.358 107.352 262.802C115.317 256.569 100.721 231.985 100.251 226.648C99.7813 221.311 97.9306 220.036 97.8766 220.223C97.8225 220.41 97.8225 221.049 97.9678 222.587C98.5941 229.219 98.5721 276.7 98.5721 276.7Z" fill="#E6E6E6"/>
<path fill-rule="evenodd" clip-rule="evenodd" d="M96.8234 225.125C97.5281 224.987 98.2106 225.448 98.3478 226.152C100.881 239.168 111.598 247.98 130.761 252.588C150.037 257.223 163.168 256.973 170.086 252.026C170.67 251.608 170.235 255.185 169.807 255.459C165.294 258.353 149.953 262.67 131.645 258.768C108.236 253.778 97.245 234.095 95.7957 226.649C95.6585 225.944 96.1186 225.262 96.8234 225.125Z" fill="#FFB61D"/>
<path fill-rule="evenodd" clip-rule="evenodd" d="M87.0617 201.641C87.6849 201.284 110.935 227.931 142.842 233.962C174.749 239.994 182.474 236.158 183.716 227.931C183.823 227.221 184.486 226.732 185.196 226.839C185.905 226.946 186.394 227.609 186.287 228.319C184.713 238.745 169.949 241.225 142.405 236.525C115.206 231.884 96.5588 220.857 86.579 203.415C86.2224 202.791 86.4385 201.997 87.0617 201.641Z" fill="#FFB61D"/>
<path fill-rule="evenodd" clip-rule="evenodd" d="M220.981 200.163C220.108 199.861 219.168 199.19 218.564 198.417L217.557 197.175L221.115 193.651C226.587 188.28 230.783 182.774 234.408 176.229C235.617 174.047 238.671 166.762 238.671 166.057C238.671 165.822 239.041 164.882 239.477 163.909C240.148 162.499 240.652 161.962 242.095 161.156C243.807 160.149 245.754 159.813 246.594 160.384C248.205 161.458 248.205 164.849 246.594 170.69C244.814 177.101 242.431 181.7 237.497 188.313C236.724 189.32 235.281 191.301 234.24 192.677C231.454 196.37 229.641 198.149 227.191 199.525C224.774 200.868 223.364 201.036 220.981 200.163ZM245.083 197.142L247.5 198.216C248.001 198.447 253.53 201.104 260.171 204.295C270.878 209.44 284.477 215.974 284.56 215.974C284.694 215.974 285.324 214.517 285.466 212.818C285.802 209.159 287.044 204.191 288.487 200.734C289.159 199.19 289.696 197.26 289.696 197.092C289.696 197.015 289.15 196.795 288.257 196.435C287.193 196.006 285.637 195.378 283.922 194.557C275.463 190.495 258.913 182.204 256.866 180.962C254.852 179.787 254.449 179.686 254.449 180.458C254.449 181.465 252.401 186.131 250.823 188.649C249.984 190.025 248.339 192.509 247.164 194.154L245.083 197.142ZM283.989 209.931C284.952 210.489 283.284 211.308 282.881 211.442C280.51 211.643 277.717 211.197 275.429 209.864C274.233 209.016 264.813 203.783 258.565 200.312C255.708 198.725 253.515 197.506 253.072 197.243C251.663 196.403 250.32 195.497 250.085 195.228C249.38 194.322 250.051 193.919 252.032 194.087C253.222 194.188 281.91 208.726 283.989 209.931ZM147.533 297.814C150.122 297.248 154.142 295.551 156.701 294.471C157.327 294.207 157.865 293.98 158.274 293.815C160.356 292.975 166.7 284.018 168.983 273.913C170.628 266.461 171.467 255.853 170.527 254.074C169.96 253.044 173.327 256.5 175.834 259.074L175.834 259.075C176.595 259.855 177.276 260.554 177.744 261.023C192.38 275.558 214.166 287.24 236.792 292.712C248.071 295.464 256.094 296.438 266.869 296.438C284.963 296.438 299.229 292.88 312.187 285.058C312.8 284.688 313.376 284.347 313.924 284.023L313.929 284.02L313.929 284.02C318.446 281.346 321.137 279.752 328.501 271.463C336.762 262.164 344.111 240.58 346.561 233.127C347.635 229.771 350.254 216.419 350.254 213.087C350.254 209.142 348.877 207.28 346.998 205.366C343.674 202.11 339.176 200.935 335.45 202.345L333.704 203.016L333.167 201.237C332.395 198.552 330.784 196.403 328.3 194.792C324.607 192.341 324.07 192.174 320.747 192.174C318.162 192.174 317.457 192.308 315.812 193.08L313.899 193.953L313.496 192.744C312.724 190.26 310.134 186.797 308.125 185.796C306.343 184.907 303.259 184.826 301.109 185.225C296.41 186.098 293.053 188.28 291.676 191.334C291.274 192.274 290.77 193.013 290.569 193.013C290.401 193.013 283.788 191.166 275.899 187.675C274.568 187.084 273.318 186.53 272.145 186.01C257.979 179.731 254.908 178.37 255.187 176.665C255.422 175.221 255.355 174.416 254.952 173.174C254.247 171.093 253.442 170.522 251.159 170.522C250.067 170.522 249.633 170.522 249.504 170.324C249.419 170.193 249.468 169.976 249.548 169.616L249.548 169.616L249.548 169.616C250.622 164.479 250.588 161.525 249.447 159.646C248.675 158.404 247.769 157.9 245.687 157.598C244.479 157.43 243.908 157.531 242.565 158.269C241.659 158.739 240.887 159.075 240.82 159.008C240.753 158.941 240.988 157.094 241.357 154.912C244.11 138.766 241.983 124.854 234.967 110.084C234.9 109.943 234.822 109.776 234.733 109.585L234.733 109.584C232.6 105.005 224.024 86.5924 199.497 77.3017C198.387 76.8811 197.336 76.4745 196.326 76.0837C187.972 72.8498 182.417 70.6999 169.016 70.7222C153.996 70.7472 148.909 72.8706 139.006 77.4024C137.63 78.0402 136.421 78.4094 136.321 78.2752C136.22 78.1073 135.582 77.7045 134.944 77.3688C134.306 77.0331 132.93 76.1939 131.923 75.5225C129.036 73.5756 127.257 72.7699 126.351 72.9713C125.31 73.2399 125.31 74.1127 126.351 74.5155C126.787 74.6833 127.291 75.254 127.492 75.8247C127.928 77.0331 128.432 77.1674 128.734 76.1603C128.868 75.7911 129.07 75.5225 129.17 75.5897C129.209 75.6088 129.336 75.6686 129.531 75.7599L129.532 75.7599L129.532 75.7601C130.023 75.9899 130.939 76.4186 131.923 76.8989C133.299 77.5702 134.81 78.2752 135.213 78.443C135.951 78.7116 135.716 78.913 132.527 80.7928C120.073 88.1108 109.936 99.4906 104.263 112.448C103.39 114.395 102.618 115.604 101.812 116.275C99.7643 117.987 95.7361 122.854 94.7961 124.768C94.2926 125.808 93.2184 127.42 92.3792 128.36C91.5735 129.3 90.7008 130.508 90.3986 131.012C90.1301 131.549 89.8615 131.918 89.7608 131.851C89.6937 131.75 89.7944 130.105 90.0294 128.192C90.5329 123.727 90.5329 122.552 90.1301 122.452C89.5259 122.284 88.6531 124.633 88.2838 127.554C88.0153 129.333 87.9481 132.019 88.116 134.771L88.3174 139.135L85.934 135.275C85.1132 133.982 84.3049 132.689 83.7315 131.772L83.7314 131.772L83.7308 131.771L83.7307 131.771L83.7306 131.771C83.3665 131.188 83.0973 130.758 82.98 130.575C82.1072 129.3 81.6037 127.386 81.9729 126.748C82.1743 126.379 82.1408 126.211 81.8051 126.211C81.1001 126.211 79.7238 128.46 78.8175 131.045C78.3811 132.254 77.9447 133.261 77.8104 133.261C77.3069 133.261 77.5418 121.243 78.0789 117.383C79.1867 109.763 82.1072 100.363 83.4164 100.363C83.6849 100.363 83.9199 100.229 83.9199 100.028C83.9199 99.4234 83.0471 99.6584 82.3422 100.43C80.7644 102.142 78.6832 107.413 77.374 113.019C76.4676 116.879 75.897 121.847 75.6956 127.252C75.5277 131.918 75.5949 132.69 76.2662 135.241C77.0383 138.095 77.6426 138.934 78.6832 138.531C79.0524 138.397 79.2203 137.893 79.2203 136.953C79.2203 136.215 79.6231 133.999 80.1266 132.019L80.9994 128.46L81.3687 129.937C81.8386 131.649 84.5913 136.953 87.0753 140.814C88.7873 143.432 88.8209 143.6 89.3916 147.695C89.6937 150.011 90.6336 155.645 92.8156 164.312C94.7435 171.969 105.582 179.565 108.288 181.462C108.644 181.712 108.86 181.863 108.895 181.902C109.231 182.271 109.701 182.472 109.969 182.372C110.271 182.271 110.439 182.405 110.439 182.774C110.439 183.11 110.674 183.547 110.943 183.748C111.278 183.983 111.513 184.889 111.58 186.467C111.748 189.622 114.098 195.665 115.911 197.645C117.086 198.921 119.536 199.458 122.255 198.988C124.034 198.72 124.538 198.518 124.37 198.115C124.269 197.847 124.907 198.182 125.78 198.854C135.985 206.642 146.324 211.308 157.939 213.322C162.437 214.094 169.889 214.53 173.951 214.228C177.543 213.993 177.543 213.993 177.375 214.698C177.14 215.638 177.442 216.209 182.377 224.567C186.304 231.18 186.64 231.617 191.004 236.081C200.269 245.649 210.373 253.067 221.82 258.807C232.596 264.178 249.799 268.643 265.526 270.053C281.253 271.463 292.549 257.028 292.516 253.336C292.448 248.267 291.743 244.944 290.031 241.721C288.353 238.599 287.245 237.525 282.21 234.168C276.604 230.442 273.146 227.387 270.864 224.131C269.42 222.083 268.883 219.767 268.883 218.525C268.883 217.719 269.924 215.907 271.468 215.537C272.878 215.168 273.146 215.202 274.724 215.974C275.664 216.41 278.115 217.552 280.129 218.525C282.176 219.465 284.157 220.405 284.56 220.606C285.747 220.936 286.249 223.261 286.522 224.521C286.582 224.802 286.632 225.031 286.675 225.172C287.145 226.917 289.369 229.171 290.804 229.938C293.323 231.286 299.532 231.466 301.244 229.62C301.68 229.15 303.127 228.572 303.425 228.747C303.723 228.922 304.802 230.375 304.802 231.55C304.835 233.564 305.876 235.41 308.091 237.256C312.288 240.747 315.544 241.587 318.833 240.043C320.545 239.237 321.949 238.922 321.949 238.922C321.949 238.922 323.348 240.708 323.432 241.318C324.092 246.088 331.153 248.087 333.033 248.288C333.464 248.332 334.302 248.147 335.154 247.96C336.292 247.71 337.455 247.454 337.699 247.73C338.179 248.271 329.676 262.332 328.501 264.111C317.323 280.896 295.57 291.168 268.95 292.242C251.663 292.947 230.414 288.113 211.984 279.318C200.202 273.645 189.762 266.696 178.584 256.961C176.637 255.283 174.387 253.369 173.582 252.698C172.776 252.06 170.863 249.878 169.386 247.864C166.902 244.507 165.492 243.299 165.492 244.44C165.492 244.944 167.103 248.032 168.949 251.087C169.688 252.295 170.158 253.134 169.99 253C169.822 252.866 169.285 255.283 168.781 258.371C167.137 268.274 164.418 278.042 161.665 284.118C160.154 287.408 157.258 289.865 156.385 290.536C153.162 292.987 148.338 294.088 141.658 294.759C133.199 295.599 120.745 293.719 111.245 290.161C108.727 289.221 102.248 286.502 101.812 286.199C101.786 286.173 101.637 285.208 101.43 283.86C101.371 283.48 101.308 283.069 101.241 282.641C100.033 274.35 98.3544 242.426 98.3544 227.656C98.3544 221.546 98.2873 220.203 97.8845 220.203C97.0452 220.203 96.7096 221.009 96.3403 223.896C95.5011 230.475 95.6689 264.816 96.5753 272.034L96.7767 273.678L95.6354 273.041C93.8898 272.033 87.2432 265.286 84.927 262.164C82.9661 259.495 81.8006 256.077 80.9287 253.52L80.9286 253.52C80.7258 252.925 80.5389 252.377 80.3616 251.895C75.4942 238.401 77.2062 223.258 83.9199 209.629C89.6266 198.015 96.6424 191.569 106.914 188.448C108.593 187.944 110.07 187.407 110.238 187.273C110.876 186.668 106.78 186.971 104.531 187.675C97.2131 189.925 89.5594 196.068 84.3563 203.923C77.0383 214.933 73.7486 231.18 76.0648 245.044C76.6019 248.334 78.7839 255.451 79.3881 255.954C79.4416 256.008 79.7177 256.587 80.1353 257.463C81.2898 259.885 83.5259 264.576 85.1284 266.696C87.0753 269.348 92.9499 275.122 95.4004 276.901L96.9445 278.009L97.1795 280.728C97.6159 285.931 97.7837 286.401 100.134 288.146C106.008 292.611 117.589 296.774 128.063 298.251C132.93 298.922 143.504 298.687 147.533 297.814ZM260.995 266.293C241.491 264.581 217.926 255.282 200.873 240.915C193.689 234.839 184.357 223.023 180.665 216.477C179.893 215.135 179.322 214.497 178.651 214.329C177.946 214.128 178.55 213.926 181.437 213.456C193.622 211.375 205.472 206.306 215.039 199.089L216.449 198.048L216.852 199.022C217.758 201.204 221.249 203.419 223.834 203.419C224.875 203.419 228.366 201.841 230.481 200.398L231.924 199.424L233.099 200.599C234.173 201.674 234.375 201.741 236.389 201.741C238.705 201.741 241.491 200.7 243.035 199.223L243.875 198.451L246.258 200.029C247.534 200.935 251.092 202.916 254.147 204.493C258.712 206.843 263.546 209.562 268.145 212.382L268.883 212.852L268.178 213.792C267.44 214.799 266.064 216.712 266.064 219.633C266.064 222.923 269.485 228.833 276.033 232.892C281.178 236.081 290.031 242.354 289.696 251.523C289.655 252.631 288.42 255.383 286.775 257.868C285.701 259.445 282.714 261.795 279.994 263.171C275.362 265.488 267.205 266.83 260.995 266.293ZM82.0065 115.604C82.9128 115.805 83.5171 116.107 83.3828 116.241C82.9464 116.678 80.6302 116.476 80.0931 115.939C79.2538 115.134 79.4553 114.563 80.6302 114.328C81.2344 114.227 82.1407 113.724 82.6443 113.22C83.1478 112.717 83.5842 112.482 83.5842 112.649C83.5842 113.086 81.9058 114.63 81.0665 114.966C80.5295 115.201 80.6973 115.301 82.0065 115.604ZM95.3668 116.141C96.3403 115.604 96.1389 115.234 94.9975 115.402C93.8562 115.57 93.7891 115.436 94.5276 114.294C94.8297 113.858 94.9975 113.22 94.9304 112.884C94.8297 112.448 94.5947 112.649 94.0576 113.724C93.6548 114.496 93.0841 115.134 92.8156 115.134C91.9764 115.134 91.9092 115.805 92.7149 116.107C93.7555 116.543 94.5612 116.543 95.3668 116.141ZM83.752 97.8121C82.9464 97.9464 80.4287 98.9535 78.2132 100.061C75.9641 101.135 74.0507 102.042 73.9164 102.008C70.4924 101.639 75.2592 95.9323 83.9199 90.0913C92.2113 84.4854 97.8173 81.5313 103.02 80.0207C106.277 79.0808 109.936 78.9465 110.976 79.7186C111.547 80.155 111.345 80.1886 108.861 80.2221C103.49 80.2221 97.2802 82.9748 87.176 89.7221C81.9393 93.2132 75.8634 98.215 75.8634 99.0206C75.8634 99.1884 76.8369 98.8528 78.0454 98.3157C80.6302 97.1408 83.2821 96.5365 84.457 96.8051C85.699 97.1408 85.4305 97.5771 83.752 97.8121ZM96.7431 100.699C99.8986 100.061 100.033 100.028 100.033 99.692C100.033 99.5241 98.8244 99.3563 97.3138 99.2892L94.5947 99.1884L97.1124 96.3351C98.4887 94.7574 100.1 93.1797 100.671 92.8104C101.913 92.0048 101.98 91.4341 100.973 91.0984L100.201 90.8634L101.04 90.5613C101.51 90.3935 102.383 90.3263 102.987 90.427C103.893 90.5613 104.095 90.4942 103.994 90.0242C103.893 89.5542 103.524 89.4535 101.879 89.4871C97.0788 89.5542 95.0311 90.8299 98.7908 91.4341C99.8314 91.6019 100.704 91.8705 100.704 92.0383C100.704 92.1726 100.536 92.3069 100.335 92.3069C99.6972 92.3069 94.2926 97.7786 93.6212 99.1213C92.5806 101.102 93.1513 101.404 96.7431 100.699ZM118.898 87.6744C117.925 87.7415 117.69 87.9094 117.757 88.3793L117.767 88.4477C117.805 88.696 117.827 88.8387 117.771 88.882C117.696 88.9405 117.48 88.8179 116.972 88.53L116.884 88.48C116.247 88.1444 116.179 87.9765 116.549 87.708C116.784 87.5066 117.421 87.2044 117.925 87.1037L118.865 86.8687L118.16 86.1302C117.791 85.6938 117.589 85.291 117.69 85.1567C117.959 84.8882 121.248 85.2575 121.718 85.6267C121.92 85.7946 122.222 85.761 122.423 85.5596C122.893 85.0896 123.531 85.4589 123.531 86.1974C123.531 86.6002 123.43 86.6338 123.128 86.3317C122.86 86.0631 122.625 86.0631 122.322 86.2981C122.054 86.5331 121.852 86.5331 121.685 86.2645C121.584 86.0967 120.946 85.9288 120.275 85.9288C119.655 85.9288 119.363 85.9288 119.303 86.0469C119.249 86.1527 119.383 86.3535 119.637 86.7345C120.172 87.5711 120.141 87.5737 118.91 87.6735L118.898 87.6744ZM113.796 78.7451C113.796 78.3087 113.393 77.5367 112.89 77.0331L111.95 76.0932L116.985 76.2946C119.771 76.4289 122.927 76.731 124.034 77.0331C125.142 77.3017 126.418 77.5031 126.888 77.5031C127.593 77.5031 127.458 77.3688 126.149 76.6639C123.867 75.489 120.946 74.9183 115.34 74.5155C108.626 74.0455 105.236 74.6833 105.874 76.3617C105.975 76.6974 106.512 76.8653 107.317 76.8653C108.962 76.8653 111.648 77.8388 112.554 78.7451C113.527 79.7186 113.796 79.7186 113.796 78.7451ZM97.4145 167.635C100.134 171.126 103.725 175.087 105.404 176.43C106.411 177.236 107.284 177.907 107.351 177.907C107.384 177.907 106.646 176.363 105.706 174.483C101.913 166.93 99.6972 159.411 98.6565 150.75C98.4215 148.837 98.0523 147.225 97.6495 146.554C96.8438 145.211 96.8438 143.466 97.683 141.821C98.1194 140.948 98.3544 139.84 98.3544 138.632V136.785L96.7431 138.464C95.1654 140.109 93.6548 140.78 93.6548 139.773C93.6548 139.034 96.1389 135.476 97.4481 134.368C98.4887 133.496 98.623 133.194 98.9586 130.575C99.1936 128.997 99.7307 126.211 100.167 124.365C100.637 122.519 100.906 120.941 100.838 120.874C100.604 120.639 92.7149 129.699 91.6407 132.589C91.4048 133.224 90.7679 134.335 90.2644 135.006L89.3916 136.127C89.3916 136.127 89.6627 137.696 89.9622 139.668C90.2649 141.661 90.4069 143.03 90.5334 144.25C90.7026 145.882 90.844 147.246 91.305 149.474C91.8421 152.227 92.3792 154.61 92.5135 154.778C92.6142 154.98 93.0506 156.524 93.487 158.236C94.4269 162.029 96.0046 165.789 97.4145 167.635ZM233.636 199.391L232.931 198.686C232.931 198.686 244.631 183.821 246.728 178.343C248.328 174.163 249.269 172.978 250.54 172.978C251.25 172.978 251.83 173.14 252.099 173.543C252.569 174.248 253.022 175.121 252.417 178.108C251.41 182.942 249.866 186.131 245.234 193.013C244.16 194.591 242.783 196.336 242.179 196.94C240.769 198.25 237.597 199.592 235.751 199.894C234.576 200.062 234.24 199.995 233.636 199.391Z" fill="#292929"/>
<path d="M326.588 232.23C330.764 220.851 330.132 218.427 329.408 218.189C329.408 218.189 327.813 219.096 327.108 221.009C325.799 224.601 321.317 234 319.639 235.679C317.659 237.659 317.659 237.659 315.644 237.659C313.63 237.659 307.821 234.626 307.031 231.636C305.765 226.852 311.213 210.234 311.348 209.294L310.441 208.656C309.837 209.227 301.977 233.06 291.643 226.85C290.459 226.139 287.95 222.788 287.749 221.009C286.63 215.84 291.763 197.763 292.635 194.05C293.417 190.726 297.484 187.642 302.485 187.642C310.173 187.642 309.14 194.361 312.583 196.729C314.109 197.779 316.617 195.876 317.39 195.732C321.72 194.926 323.38 195.864 326.554 198.384C329.005 200.329 330.818 204.178 332.813 205.534C333.922 206.287 335.098 205.257 335.483 205.064C337.063 204.271 340.452 204.863 341.392 205.534C342.769 206.135 346.146 209.381 346.679 211.268C349.097 219.824 341.463 238.793 338.581 242.351C333.81 248.241 322.411 243.608 326.588 232.23Z" fill="white"/>
<path fill-rule="evenodd" clip-rule="evenodd" d="M133.601 201.051C142.799 206.858 152.283 210.652 163.092 211.692C171.619 212.498 183.115 211.39 191.373 208.705C198.322 206.456 207.721 200.225 213.998 194.955C226.184 184.75 233.871 168.81 237.228 151.891C237.698 149.508 238.415 143.517 238.381 137.575C238.381 130.66 235.338 111.763 226.117 100.867C207.098 78.3939 175.836 68.2705 149.563 76.9203C140.085 80.0406 129.994 85.6939 122.374 93.079C112.773 102.445 105.69 115.201 102.87 128.225C99.9163 141.989 103.759 158.437 110.439 171.932C115.777 182.674 124.572 195.311 133.601 201.051ZM223.23 160.485C216.919 179.451 200.47 193.617 179.792 197.914C176.637 198.552 174.455 198.787 170.023 198.854C166.902 198.955 163.78 198.921 163.142 198.854C148.674 197.108 137.663 191.771 127.526 181.633C123.094 177.168 121.215 174.752 118.462 169.985C114.132 162.432 111.815 154.711 111.11 145.413C108.694 113.556 131.487 87.003 163.578 84.2504C176.167 83.1762 190.131 87.0366 200.739 94.556C204.666 97.3422 211.783 104.392 213.998 107.681C214.905 108.991 223.7 121.847 225.244 129.232C227.225 138.833 226.452 150.851 223.23 160.485Z" fill="white"/>
<path fill-rule="evenodd" clip-rule="evenodd" d="M238.393 137.575C238.393 160.107 227.735 184.74 213.98 195.26C207.418 200.279 198.842 206.357 191.373 208.705C180.428 212.146 163.093 211.692 163.093 211.692C163.093 211.692 180.779 209.328 187.333 206.69C206.127 199.127 216.387 187.516 222.722 176.376C235.228 154.385 238.393 137.028 238.393 137.575Z" fill="#E6E6E6"/>
<path fill-rule="evenodd" clip-rule="evenodd" d="M163.478 194.826C154.515 193.684 145.619 190.495 138.435 185.762C134.172 182.976 127.727 176.43 124.605 171.764C120.141 165.05 117.186 157.866 115.743 150.146C114.702 144.54 114.736 135.913 115.777 130.911C116.851 125.808 118.227 121.914 120.678 116.98C123.531 111.273 126.552 107.077 131.084 102.545C138.805 94.8245 147.768 89.9235 158.442 87.5737C161.9 86.8352 174.421 86.2309 174.857 86.8016C174.958 86.9695 175.63 87.4058 176.334 87.7751C177.039 88.1779 178.919 89.5878 180.463 90.9641C182.78 92.9782 183.82 94.2539 185.834 97.4093C187.211 99.5577 188.318 101.505 188.318 101.673C188.318 102.042 189.393 102.713 189.997 102.713C190.836 102.713 191.407 100.196 191.575 95.7644C191.675 93.3139 191.877 91.2998 192.011 91.2998C192.481 91.2998 197.651 94.1531 200.068 95.7644C204.801 98.9199 209.534 103.351 213.025 107.983C214.603 110.065 214.838 110.602 214.838 111.877C214.838 113.052 215.173 113.959 216.214 115.771C218.832 120.337 220.88 126.077 222.122 132.421C222.928 136.685 222.928 144.741 222.089 149.206C219.806 161.492 213.025 173.711 204.196 181.465C196.711 188.011 188.755 192.039 179.356 194.02C176.133 194.725 166.465 195.195 163.478 194.826ZM139.476 171.865C139.778 171.529 139.98 171.025 139.879 170.79C139.849 170.72 139.428 170.522 138.813 170.233C137.379 169.559 134.885 168.387 133.805 167.165C129.508 162.264 127.93 158.605 126.957 151.052C126.017 143.7 126.807 138.731 128.501 130.743C129.328 126.846 131.525 123.628 132.891 121.626C133.821 120.264 134.366 119.465 133.837 119.397C132.527 119.195 132.326 119.296 130.95 120.605C127.996 123.425 126.653 125.674 125.243 130.004C123.061 136.785 122.639 155.111 126.957 163.372C131.274 171.633 138.704 172.737 139.476 171.865ZM187.211 143.667C186.641 148.882 184.223 156.423 181.403 159.713C180.094 161.257 175.289 163.909 171.232 163.372C167.314 162.853 164.25 161.022 161.631 157.094C159.382 153.704 158.221 149.589 157.435 144.405C156.079 135.455 162.001 125.036 164.552 122.452C167.137 119.8 168.983 118.86 171.333 118.826C173.615 118.826 175.092 119.33 177.409 120.975C181.638 123.929 188.318 133.534 187.211 143.667ZM141.96 115.906C142.632 115.134 142.732 114.764 142.531 113.321C142.397 111.978 142.128 111.441 141.423 110.87C140.181 109.863 138.637 109.863 137.495 110.937C136.69 111.71 136.589 111.978 136.69 113.824C136.791 115.805 136.858 115.939 137.965 116.543C139.442 117.349 140.886 117.114 141.96 115.906ZM162.907 95.1938C156.865 99.5241 154.246 101.303 151.527 102.982C149.379 104.324 148.707 104.358 148.707 103.15C148.707 102.512 149.177 101.807 150.386 100.699L152.064 99.1549L148.808 98.7185C145.149 98.2485 141.591 97.2415 140.819 96.4694C139.543 95.1602 140.651 94.8581 144.276 95.5295C145.888 95.798 149.01 96.1337 151.225 96.2008L155.253 96.3687L158.174 94.2538C164.585 89.6214 171.232 87.003 174.421 87.8087C176.402 88.2786 176.167 88.8157 173.917 89.0843C171.333 89.3864 169.755 90.2592 162.907 95.1938Z" fill="white"/>
<path d="M171.534 158.773C171.534 158.605 171.735 158.437 172.004 158.437C172.273 158.437 172.608 158.605 172.709 158.773C172.81 158.974 172.608 159.109 172.239 159.109C171.836 159.109 171.534 158.974 171.534 158.773Z" fill="white"/>
<path d="M173.548 158.471C173.548 158.101 174.387 157.766 175.327 157.766C176.066 157.799 176.066 157.799 175.428 158.269C174.69 158.84 173.548 158.941 173.548 158.471Z" fill="white"/>
<path d="M168.345 157.598C168.244 157.329 168.11 156.859 168.009 156.591C167.909 156.255 168.077 156.087 168.513 156.087C168.882 156.087 169.184 156.289 169.184 156.557C169.184 156.826 169.285 157.262 169.386 157.564C169.52 157.934 169.419 158.101 169.05 158.101C168.748 158.101 168.412 157.867 168.345 157.598Z" fill="white"/>
<path d="M170.124 156.759C169.956 155.752 170.326 155.416 171.534 155.416C171.903 155.416 172.205 155.752 172.34 156.322C172.608 157.296 172.172 157.766 170.997 157.766C170.46 157.766 170.225 157.531 170.124 156.759Z" fill="white"/>
<path d="M166.7 156.927C166.062 156.423 166.062 156.423 166.767 156.423C167.204 156.423 167.506 156.624 167.506 156.927C167.506 157.531 167.506 157.531 166.7 156.927Z" fill="white"/>
<path d="M173.448 156.893C173.011 156.457 173.213 155.147 173.75 154.946C174.723 154.577 175.16 154.745 175.361 155.617C175.495 156.121 175.562 156.557 175.495 156.591C175.227 156.893 173.649 157.094 173.448 156.893Z" fill="white"/>
<path d="M176.435 156.188C176.334 156.087 176.234 155.651 176.234 155.248C176.234 154.677 176.502 154.442 177.308 154.275C178.013 154.14 178.449 154.208 178.651 154.476C178.986 155.013 178.986 155.685 178.684 155.852C178.08 156.188 176.67 156.389 176.435 156.188Z" fill="white"/>
<path d="M165.156 155.147C165.156 154.745 165.458 154.409 165.895 154.308C166.767 154.073 166.734 154.04 166.902 154.912C166.969 155.416 166.801 155.617 166.096 155.685C165.357 155.785 165.156 155.651 165.156 155.147Z" fill="white"/>
<path d="M167.707 155.181C167.237 154.677 167.539 153.738 168.177 153.738C168.614 153.738 168.849 153.973 168.849 154.375C168.849 155.013 168.077 155.55 167.707 155.181Z" fill="white"/>
<path d="M169.721 154.174C169.453 153.536 170.024 153.066 171.131 153.066C171.635 153.066 171.87 153.268 171.87 153.704C171.87 154.073 171.568 154.409 171.131 154.543C170.024 154.812 169.956 154.812 169.721 154.174Z" fill="white"/>
<path d="M179.423 154.073C179.523 153.905 179.691 153.738 179.792 153.738C179.893 153.738 179.859 153.905 179.758 154.073C179.658 154.275 179.49 154.409 179.389 154.409C179.288 154.409 179.322 154.275 179.423 154.073Z" fill="white"/>
<path d="M172.743 153.503C172.474 152.831 172.81 152.495 173.884 152.328C174.488 152.261 174.757 152.395 174.824 152.865C175.059 153.973 173.145 154.577 172.743 153.503Z" fill="white"/>
<path d="M164.686 152.932C164.384 151.824 164.451 151.723 165.324 151.723C165.794 151.723 166.163 151.858 166.163 152.026C166.163 152.193 166.264 152.563 166.364 152.831C166.465 153.167 166.264 153.368 165.693 153.469C165.055 153.603 164.82 153.469 164.686 152.932Z" fill="white"/>
<path d="M175.898 152.563C175.898 151.958 176.133 151.69 176.771 151.522C177.711 151.287 178.248 151.757 178.248 152.831C178.248 153.268 177.979 153.402 177.073 153.402C176.032 153.402 175.898 153.301 175.898 152.563Z" fill="white"/>
<path d="M163.679 152.563C163.578 152.294 163.645 152.059 163.813 152.059C164.015 152.059 164.149 152.294 164.149 152.563C164.149 152.831 164.082 153.066 164.015 153.066C163.948 153.066 163.813 152.831 163.679 152.563Z" fill="white"/>
<path d="M167.069 152.831C166.599 152.395 166.868 151.455 167.472 151.287C167.841 151.186 168.211 151.22 168.311 151.321C168.714 151.69 168.479 152.663 167.976 152.865C167.338 153.1 167.338 153.1 167.069 152.831Z" fill="white"/>
<path d="M179.053 152.596C178.684 151.623 179.087 150.884 180.027 150.783C180.732 150.683 180.933 150.817 180.933 151.354C180.933 152.462 180.564 153.066 179.893 153.066C179.523 153.066 179.154 152.865 179.053 152.596Z" fill="white"/>
<path d="M169.419 152.16C169.016 151.791 169.151 151.119 169.721 150.918C170.359 150.683 171.702 151.354 171.333 151.723C170.863 152.126 169.654 152.428 169.419 152.16Z" fill="white"/>
<path d="M172.34 151.321C172.038 150.851 173.112 150.045 173.985 150.045C174.387 150.045 174.555 150.246 174.488 150.616C174.354 151.287 172.642 151.824 172.34 151.321Z" fill="white"/>
<path d="M163.142 151.086C163.142 150.918 163.041 150.549 162.94 150.246C162.84 149.944 162.873 149.709 163.075 149.709C163.511 149.709 163.847 150.985 163.444 151.253C163.276 151.354 163.142 151.287 163.142 151.086Z" fill="white"/>
<path d="M164.048 150.314C163.847 149.575 164.25 149.038 165.022 149.038C165.458 149.038 165.895 150.347 165.626 150.783C165.257 151.354 164.216 151.018 164.048 150.314Z" fill="white"/>
<path d="M166.398 150.481C165.895 149.978 166.197 148.769 166.868 148.602C167.372 148.467 167.64 148.635 167.909 149.239C168.11 149.676 168.211 150.112 168.144 150.179C167.808 150.481 166.6 150.716 166.398 150.481Z" fill="white"/>
<path d="M175.462 150.481C175.025 150.045 175.227 149.776 176.234 149.407C177.073 149.139 177.308 149.172 177.476 149.575C177.778 150.381 176.099 151.153 175.462 150.481Z" fill="white"/>
<path d="M178.416 149.709C178.08 149.172 178.55 148.702 179.423 148.702C180.463 148.702 180.765 149.575 179.826 149.844C178.818 150.112 178.651 150.079 178.416 149.709Z" fill="white"/>
<path d="M181.269 148.904C181.269 148.4 181.873 147.863 182.142 148.132C182.377 148.367 181.907 149.374 181.571 149.374C181.403 149.374 181.269 149.172 181.269 148.904Z" fill="white"/>
<path d="M162.705 148.467C162.571 148.367 162.47 147.93 162.504 147.561C162.504 146.923 162.538 146.923 162.84 147.662C163.175 148.467 163.108 148.87 162.705 148.467Z" fill="white"/>
<path d="M163.343 147.964C163.041 146.789 163.075 146.688 163.948 146.688C164.921 146.688 165.525 147.93 164.787 148.4C164.015 148.87 163.578 148.736 163.343 147.964Z" fill="white"/>
<path d="M174.891 148.635C174.891 148.534 175.059 147.997 175.26 147.393C175.73 146.05 176.771 145.983 177.006 147.292C177.107 147.796 177.14 148.232 177.107 148.266C176.939 148.467 174.891 148.769 174.891 148.635Z" fill="white"/>
<path d="M165.727 147.796C165.592 147.695 165.492 147.292 165.492 146.923C165.492 146.386 165.592 146.352 165.995 146.688C166.264 146.923 166.499 147.326 166.499 147.561C166.499 148.064 166.096 148.199 165.727 147.796Z" fill="white"/>
<path d="M177.811 147.124C177.61 146.084 178.046 145.614 179.087 145.748C179.591 145.815 179.758 146.117 179.758 146.856C179.758 147.695 179.624 147.897 178.886 147.964C178.147 148.064 177.979 147.897 177.811 147.124Z" fill="white"/>
<path d="M181.101 147.259C180.665 145.916 180.799 145.513 181.705 145.413C182.511 145.312 182.612 145.413 182.612 146.285C182.612 147.024 182.41 147.326 181.907 147.46C181.538 147.561 181.168 147.46 181.101 147.259Z" fill="white"/>
<path d="M162.202 145.345C162.202 144.708 162.269 144.439 162.37 144.775C162.437 145.077 162.437 145.614 162.37 145.95C162.269 146.252 162.202 145.983 162.202 145.345Z" fill="white"/>
<path d="M163.041 145.782C162.605 145.379 162.806 144.07 163.343 143.868C164.115 143.566 164.485 143.935 164.485 145.043C164.485 145.748 164.317 146.017 163.88 146.017C163.545 146.017 163.142 145.916 163.041 145.782Z" fill="white"/>
<path d="M165.055 144.875C164.921 144.372 164.854 143.835 164.988 143.734C165.324 143.398 165.525 143.935 165.425 144.909L165.324 145.849L165.055 144.875Z" fill="white"/>
<path d="M175.898 144.64C175.898 144.271 176.066 144.07 176.234 144.17C176.435 144.271 176.569 144.607 176.569 144.875C176.569 145.144 176.435 145.345 176.234 145.345C176.066 145.345 175.898 145.043 175.898 144.64Z" fill="white"/>
<path d="M177.409 145.077C176.939 144.573 177.308 143.667 178.08 143.466C179.053 143.231 179.087 143.231 179.389 144.204C179.591 144.808 179.456 144.943 178.584 145.077C178.046 145.178 177.509 145.144 177.409 145.077Z" fill="white"/>
<path d="M180.497 144.439C180.128 144.103 180.228 142.996 180.598 142.996C180.799 142.996 180.933 142.861 180.933 142.66C180.933 142.492 180.732 142.324 180.463 142.324C179.893 142.324 179.423 140.679 179.893 140.209C180.497 139.605 181.168 140.243 181.571 141.888C181.806 142.761 182.041 143.768 182.142 144.103C182.276 144.54 182.142 144.674 181.504 144.674C181.068 144.674 180.598 144.573 180.497 144.439Z" fill="white"/>
<path d="M182.31 142.66C182.075 141.653 181.47 139.639 181.034 138.162C180.363 136.013 180.295 135.476 180.665 135.241C180.9 135.073 181.202 134.939 181.303 134.939C181.672 134.939 183.015 141.821 182.88 143.163L182.78 144.506L182.31 142.66Z" fill="white"/>
<path d="M161.866 142.492C161.866 141.955 161.933 141.754 162.034 142.089C162.101 142.391 162.101 142.861 162.034 143.096C161.933 143.298 161.866 143.063 161.866 142.492Z" fill="white"/>
<path d="M162.538 142.425C162.672 141.25 163.645 140.981 163.914 142.056C164.149 142.928 164.216 142.828 163.209 143.163C162.504 143.365 162.437 143.298 162.538 142.425Z" fill="white"/>
<path d="M176.704 142.123C176.435 141.149 177.006 140.579 178.08 140.713C178.886 140.814 179.188 142.257 178.516 142.693C177.677 143.231 176.905 142.996 176.704 142.123Z" fill="white"/>
<path d="M164.485 141.854C164.485 141.284 164.652 140.981 165.022 140.981C165.357 140.981 165.492 141.216 165.425 141.72C165.257 142.794 164.485 142.895 164.485 141.854Z" fill="white"/>
<path d="M161.497 140.444C161.497 140.075 161.598 139.974 161.698 140.243C161.799 140.478 161.766 140.78 161.665 140.881C161.564 141.015 161.463 140.814 161.497 140.444Z" fill="white"/>
<path d="M162.135 140.344C162.135 139.84 162.336 139.639 162.84 139.639C163.31 139.639 163.478 139.807 163.411 140.209C163.243 141.082 162.135 141.183 162.135 140.344Z" fill="white"/>
<path d="M163.981 140.042C163.746 139.437 163.746 139.437 164.753 139.169C165.357 138.967 165.492 139.068 165.492 139.572C165.492 140.377 164.283 140.78 163.981 140.042Z" fill="white"/>
<path d="M176.133 139.572C175.898 138.732 176.334 138.296 177.509 138.296C178.08 138.296 178.248 138.497 178.248 139.135C178.248 139.639 178.046 139.974 177.778 139.974C177.509 139.974 177.073 140.075 176.804 140.176C176.502 140.277 176.267 140.075 176.133 139.572Z" fill="white"/>
<path d="M179.053 138.799C178.785 138.128 179.188 137.625 179.96 137.625C180.43 137.625 180.598 137.86 180.598 138.464C180.598 139.068 180.43 139.303 179.926 139.303C179.557 139.303 179.154 139.068 179.053 138.799Z" fill="white"/>
<path d="M161.799 138.33C161.799 137.625 162.571 136.819 162.907 137.188C163.041 137.289 163.142 137.759 163.142 138.195C163.142 138.732 162.941 138.967 162.471 138.967C162.034 138.967 161.799 138.732 161.799 138.33Z" fill="white"/>
<path d="M163.646 137.927C163.377 137.087 163.679 136.718 164.82 136.55C165.861 136.416 166.197 137.524 165.29 138.195C164.418 138.833 163.88 138.732 163.646 137.927Z" fill="white"/>
<path d="M175.797 137.725C175.562 137.524 175.462 136.282 175.663 136.282C175.697 136.282 176.2 136.148 176.804 135.98C177.811 135.678 177.879 135.711 177.845 136.618C177.811 137.289 177.61 137.625 177.107 137.759C176.2 137.994 176.066 137.994 175.797 137.725Z" fill="white"/>
<path d="M174.555 136.953C174.555 136.718 174.656 136.618 174.79 136.718C174.891 136.852 174.891 137.054 174.79 137.188C174.656 137.289 174.555 137.188 174.555 136.953Z" fill="white"/>
<path d="M178.315 136.416C178.416 135.845 179.456 135.006 179.691 135.275C179.792 135.375 179.96 135.778 180.061 136.215C180.296 136.886 180.195 136.953 179.255 136.953C178.449 136.953 178.214 136.819 178.315 136.416Z" fill="white"/>
<path d="M162.135 136.383C162.135 136.215 162.303 135.879 162.471 135.61C162.739 135.208 162.806 135.241 162.806 135.879C162.806 136.282 162.672 136.618 162.471 136.618C162.303 136.618 162.135 136.517 162.135 136.383Z" fill="white"/>
<path d="M163.142 135.644C163.142 134.704 163.847 134.402 164.384 135.107C164.72 135.61 164.72 135.778 164.384 136.013C163.679 136.45 163.142 136.315 163.142 135.644Z" fill="white"/>
<path d="M173.347 135.208C172.743 134.536 172.743 134.503 173.313 134.704C173.649 134.838 174.085 134.939 174.253 134.939C174.421 134.939 174.555 135.174 174.555 135.443C174.555 136.148 174.085 136.08 173.347 135.208Z" fill="white"/>
<path d="M166.13 135.174C164.686 134.066 164.485 131.582 165.827 131.582C166.734 131.582 167.573 132.992 167.439 134.301C167.338 135.51 166.935 135.778 166.13 135.174Z" fill="white"/>
<path d="M175.327 135.375C175.462 135.275 175.663 135.275 175.797 135.375C175.898 135.51 175.797 135.61 175.562 135.61C175.327 135.61 175.227 135.51 175.327 135.375Z" fill="white"/>
<path d="M180.396 134.066C180.497 133.764 180.598 133.462 180.598 133.395C180.598 133.328 180.766 133.261 180.933 133.261C181.135 133.261 181.269 133.563 181.269 133.932C181.269 134.335 181.034 134.603 180.732 134.603C180.363 134.603 180.262 134.436 180.396 134.066Z" fill="white"/>
<path d="M162.806 133.966C162.806 133.193 163.511 131.918 163.914 131.918C164.619 131.918 164.115 134.066 163.377 134.201C163.075 134.268 162.806 134.167 162.806 133.966Z" fill="white"/>
<path d="M170.359 133.596L169.352 133.361L170.259 133.126C171.198 132.858 171.87 133.059 171.87 133.63C171.87 133.966 171.836 133.966 170.359 133.596Z" fill="white"/>
<path d="M169.184 131.985C169.184 130.609 169.956 130.407 170.661 131.616C171.131 132.421 171.165 132.589 170.728 132.589C170.46 132.589 170.024 132.69 169.721 132.791C169.319 132.959 169.184 132.757 169.184 131.985Z" fill="white"/>
<path d="M175.025 132.455C173.515 131.784 172.541 130.004 172.541 127.89C172.541 126.379 172.675 126.01 173.582 125.171C174.152 124.633 174.723 124.197 174.891 124.197C175.629 124.197 178.349 126.782 179.255 128.393L180.295 130.239L179.188 131.414C177.912 132.757 176.502 133.126 175.025 132.455Z" fill="white"/>
<path d="M168.009 131.582C167.909 131.414 167.976 131.247 168.144 131.247C168.345 131.247 168.513 131.414 168.513 131.582C168.513 131.784 168.446 131.918 168.379 131.918C168.278 131.918 168.11 131.784 168.009 131.582Z" fill="white"/>
<path d="M163.612 131.045C163.713 130.743 163.813 130.441 163.813 130.374C163.813 130.307 164.115 130.239 164.485 130.239C165.324 130.239 165.357 130.777 164.518 131.247C163.612 131.716 163.377 131.683 163.612 131.045Z" fill="white"/>
<path d="M166.264 130.642C165.492 130.542 165.257 130.105 165.76 129.803C165.894 129.702 166.499 129.535 167.103 129.4C168.009 129.199 168.177 129.266 168.177 129.837C168.177 130.542 167.472 130.844 166.264 130.642Z" fill="white"/>
<path d="M168.849 129.501C168.849 129.098 168.882 128.863 168.949 128.93C168.983 128.997 169.251 129.333 169.486 129.669C169.889 130.139 169.856 130.239 169.386 130.239C169.05 130.239 168.849 129.971 168.849 129.501Z" fill="white"/>
<path d="M164.149 129.266C164.149 129.065 164.317 128.83 164.485 128.729C164.686 128.628 164.82 128.762 164.82 129.031C164.82 129.333 164.686 129.568 164.485 129.568C164.317 129.568 164.149 129.434 164.149 129.266Z" fill="white"/>
<path d="M165.391 128.762C165.122 128.091 167.506 127.353 167.909 127.99C168.211 128.527 167.909 128.762 166.633 129.031C165.861 129.199 165.525 129.132 165.391 128.762Z" fill="white"/>
<path d="M168.547 127.688C168.547 127.319 168.647 127.218 168.748 127.487C168.849 127.722 168.815 128.024 168.714 128.125C168.614 128.259 168.513 128.058 168.547 127.688Z" fill="white"/>
<path d="M165.693 127.151C166.096 126.413 167.271 125.204 167.573 125.204C167.909 125.204 167.942 126.782 167.607 126.983C167.439 127.05 166.902 127.218 166.398 127.353C165.66 127.52 165.492 127.487 165.693 127.151Z" fill="white"/>
<path d="M168.379 126.379C168.009 125.372 168.177 124.936 168.983 124.801C169.822 124.633 169.822 124.633 169.285 125.674C168.614 127.017 168.647 127.017 168.379 126.379Z" fill="white"/>
<path d="M168.177 124.365C168.177 124.298 168.849 123.828 169.688 123.358C170.695 122.754 171.4 122.552 171.903 122.686C172.508 122.888 172.34 123.022 170.863 123.727C169.218 124.466 168.177 124.734 168.177 124.365Z" fill="white"/>
<path d="M186.808 94.6231C185.902 93.3139 183.988 91.1991 182.612 89.9235C181.235 88.6479 180.329 87.6072 180.598 87.6072C181.336 87.6072 186.976 89.1514 188.386 89.7556C189.561 90.2592 189.594 90.3263 189.292 91.3669C189.124 91.9712 188.99 93.4818 188.99 94.7238C188.99 95.9994 188.889 97.0065 188.755 97.0065C188.587 97.0065 187.748 95.9323 186.808 94.6231Z" fill="white"/>
<path d="M118.496 196.303C117.119 195.598 116.817 195.195 115.072 191.737C112.554 186.836 112.487 185.695 114.87 188.481C115.81 189.589 117.992 191.872 119.704 193.55C122.625 196.37 122.759 196.571 121.785 196.437C121.08 196.336 120.812 196.403 120.98 196.672C121.382 197.276 120.107 197.108 118.496 196.303Z" fill="white"/>
<path fill-rule="evenodd" clip-rule="evenodd" d="M174.753 257.462C174.474 256.8 174.785 256.038 175.447 255.759L176.17 255.452C183.201 252.444 187.237 250.636 189.98 247.767C192.722 244.897 193.05 240.681 193.566 238.117C193.707 237.413 195.301 238.649 196.005 238.79C196.709 238.932 197.165 239.617 197.023 240.321C196.404 243.405 194.736 246.345 192.05 249.136C189.373 251.917 184.191 254.899 176.455 258.156C175.794 258.434 175.031 258.124 174.753 257.462Z" fill="#292929"/>
<path fill-rule="evenodd" clip-rule="evenodd" d="M206.551 123.523C207.168 123.156 207.966 123.358 208.333 123.975C212.01 130.152 213.98 137.213 213.98 144.56C213.98 166.817 195.937 184.86 173.68 184.86C167.766 184.86 162.03 183.584 156.777 181.154C156.125 180.853 153.664 178.452 156.143 179.428C158.622 180.405 168.214 182.596 173.749 182.596C194.57 182.596 209.3 165.381 209.3 144.56C209.3 137.685 206.551 131.582 206.099 125.305C206.046 124.577 205.934 123.89 206.551 123.523Z" fill="#292929"/>
<path fill-rule="evenodd" clip-rule="evenodd" d="M77.8019 221.913C78.2614 221.361 79.0811 220.246 79.6328 220.706C81.8959 222.591 84.3109 224.775 86.8942 225.197C89.5824 225.635 92.7716 225.635 96.4575 225.189C97.1702 225.103 97.818 225.611 97.9043 226.323C97.9906 227.036 97.4827 227.684 96.7699 227.77C92.8557 228.244 89.4256 228.244 86.4755 227.763C83.4205 227.264 80.5795 225.918 77.9688 223.744C77.4171 223.284 77.3424 222.465 77.8019 221.913Z" fill="#292929"/>
<path d="M105.404 176.43C103.725 175.087 100.134 171.126 97.4145 167.635C96.0046 165.789 94.4269 162.029 93.487 158.236C93.0506 156.524 92.6142 154.98 92.5135 154.778C92.3792 154.61 91.8421 152.227 91.305 149.474C90.4994 145.58 90.6698 144.326 89.9623 139.668C89.6627 137.696 89.3916 136.127 89.3916 136.127L90.2644 135.006C90.7679 134.335 91.4049 133.224 91.6407 132.589C92.7149 129.699 100.604 120.639 100.839 120.874C100.906 120.941 100.637 122.519 100.167 124.365C99.7307 126.211 99.1936 128.997 98.9587 130.575C98.623 133.194 98.4887 133.496 97.4481 134.368C96.1389 135.476 93.6548 139.034 93.6548 139.773C93.6548 140.78 95.1654 140.109 96.7431 138.464L98.3544 136.785V138.632C98.3544 139.84 98.1194 140.948 97.6831 141.821C96.8438 143.466 96.8438 145.211 97.6495 146.554C98.0523 147.225 98.4216 148.837 98.6565 150.75C99.6972 159.411 101.913 166.93 105.706 174.483C106.646 176.363 107.384 177.907 107.351 177.907C107.284 177.907 106.411 177.236 105.404 176.43Z" fill="white"/>
<path fill-rule="evenodd" clip-rule="evenodd" d="M245.083 197.142L247.5 198.216C248.001 198.447 253.53 201.104 260.171 204.295C270.878 209.44 284.477 215.974 284.56 215.974C284.694 215.974 285.324 214.517 285.466 212.818C285.802 209.159 287.044 204.191 288.487 200.734C289.159 199.19 289.696 197.26 289.696 197.092C289.696 197.015 289.15 196.795 288.257 196.435C287.193 196.006 285.637 195.378 283.922 194.557C275.463 190.495 258.913 182.204 256.866 180.962C254.851 179.787 254.449 179.686 254.449 180.458C254.449 181.465 252.401 186.131 250.823 188.649C249.984 190.025 248.339 192.509 247.164 194.154L245.083 197.142ZM283.989 209.931C284.952 210.489 283.284 211.308 282.881 211.442C280.509 211.643 277.717 211.197 275.429 209.864C274.233 209.016 264.813 203.783 258.565 200.312C255.708 198.725 253.515 197.506 253.072 197.243C251.662 196.403 250.32 195.497 250.085 195.228C249.38 194.322 250.051 193.919 252.032 194.087C253.222 194.188 281.91 208.726 283.989 209.931Z" fill="white"/>
<path d="M220.981 200.163C220.108 199.861 219.168 199.19 218.564 198.417L217.557 197.175L221.115 193.651C226.587 188.28 230.615 182.41 234.24 175.864C235.449 173.682 239.041 164.882 239.477 163.909C240.148 162.499 240.652 161.962 242.095 161.156C243.807 160.149 245.754 159.813 246.594 160.384C248.205 161.458 248.205 164.849 246.594 170.69C244.814 177.101 242.431 181.7 237.497 188.313C236.724 189.32 235.281 191.301 234.24 192.677C231.454 196.37 229.641 198.149 227.191 199.525C224.774 200.868 223.364 201.036 220.981 200.163Z" fill="white"/>
<path d="M233.636 199.391L232.931 198.686C232.931 198.686 244.631 183.821 246.728 178.343C248.328 174.163 249.269 172.978 250.54 172.978C251.25 172.978 251.83 173.14 252.099 173.543C252.569 174.248 253.022 175.121 252.417 178.108C251.41 182.942 249.866 186.131 245.234 193.013C244.16 194.591 242.783 196.336 242.179 196.94C240.769 198.25 237.597 199.592 235.751 199.894C234.576 200.062 234.24 199.995 233.636 199.391Z" fill="white"/>
<path fill-rule="evenodd" clip-rule="evenodd" d="M253.289 183.847C253.966 182.298 254.449 180.947 254.449 180.458C254.449 179.686 254.852 179.787 256.866 180.962C258.913 182.204 275.463 190.495 283.922 194.557C287.077 196.068 289.696 196.924 289.696 197.092C289.696 197.26 252.572 185.489 253.289 183.847Z" fill="#E6E6E6"/>
<path fill-rule="evenodd" clip-rule="evenodd" d="M138.435 185.762C134.172 182.976 127.727 176.43 124.605 171.764C120.141 165.05 117.186 157.866 115.743 150.146C114.702 144.54 114.736 135.913 115.777 130.911C116.851 125.808 118.227 121.914 120.678 116.98C123.531 111.273 126.552 107.077 131.084 102.545C135.528 98.1013 115.777 116.479 120.678 149.361C124.605 176.916 141.484 187.771 138.435 185.762Z" fill="#E6E6E6"/>
</svg>
