<svg width="17" height="19" viewBox="0 0 17 19" fill="none" xmlns="http://www.w3.org/2000/svg">
<path d="M16.2901 6.48065C16.1993 6.53357 14.0397 7.65045 14.0397 10.1268C14.1415 12.951 16.7651 13.9414 16.8101 13.9414C16.7651 13.9943 16.414 15.2906 15.374 16.6494C14.5486 17.8199 13.6326 19 12.2415 19C10.9183 19 10.4433 18.2199 8.91648 18.2199C7.27684 18.2199 6.81291 19 5.55755 19C4.16647 19 3.18254 17.7567 2.3122 16.5972C1.18149 15.0796 0.22042 12.6981 0.186491 10.4114C0.163626 9.19965 0.412928 8.00854 1.04577 6.99682C1.93898 5.58439 3.53363 4.6256 5.27505 4.59398C6.60933 4.55205 7.79684 5.44762 8.61112 5.44762C9.39148 5.44762 10.8504 4.59398 12.5011 4.59398C13.2136 4.59467 15.1136 4.79468 16.2901 6.48065ZM8.49827 4.35205C8.26077 3.24548 8.91648 2.13891 9.5272 1.43304C10.3076 0.579402 11.5401 0 12.6029 0C12.6708 1.10657 12.2408 2.19183 11.4722 2.98224C10.7826 3.83588 9.59506 4.47851 8.49827 4.35205Z" fill="white"/>
</svg>
