<svg width="20" height="21" viewBox="0 0 20 21" fill="none" xmlns="http://www.w3.org/2000/svg">
<path d="M18.7509 10.6943C18.7509 9.97489 18.6913 9.44989 18.5624 8.90546H10.1794V12.1526H15.1C15.0009 12.9596 14.4652 14.1749 13.2747 14.9915L13.258 15.1002L15.9085 17.1125L16.0921 17.1305C17.7786 15.604 18.7509 13.3582 18.7509 10.6943Z" fill="#4285F4"/>
<path d="M10.1788 19.25C12.5895 19.25 14.6133 18.4722 16.0915 17.1305L13.274 14.9916C12.5201 15.5068 11.5081 15.8666 10.1788 15.8666C7.81773 15.8666 5.81379 14.3402 5.09944 12.2305L4.99473 12.2392L2.23868 14.3295L2.20264 14.4277C3.67087 17.286 6.68674 19.25 10.1788 19.25Z" fill="#34A853"/>
<path d="M5.10014 12.2305C4.91165 11.6861 4.80257 11.1027 4.80257 10.5C4.80257 9.89716 4.91165 9.31385 5.09022 8.76941L5.08523 8.65346L2.29464 6.5296L2.20333 6.57216C1.5982 7.75829 1.25098 9.09026 1.25098 10.5C1.25098 11.9097 1.5982 13.2416 2.20333 14.4277L5.10014 12.2305Z" fill="#FBBC05"/>
<path d="M10.1789 5.13331C11.8554 5.13331 12.9864 5.84303 13.6312 6.43613L16.1511 4.025C14.6035 2.61528 12.5895 1.75 10.1789 1.75C6.68676 1.75 3.67088 3.71387 2.20264 6.57218L5.08953 8.76944C5.81381 6.65972 7.81776 5.13331 10.1789 5.13331Z" fill="#EB4335"/>
</svg>
